<?xml version="1.0" encoding="UTF-8"?>
<svg xmlns="http://www.w3.org/2000/svg" xmlns:xlink="http://www.w3.org/1999/xlink" viewBox="0 0 16 16" version="1.1">
<g id="surface1">
<path style=" " d="M 2.5 2 C 1.671875 2 1 2.671875 1 3.5 L 1 12.5 L 2 11.5 L 2 5 L 13 5 L 13 12 L 6.5 12 L 5.5 13 L 14 13 L 14 3.5 C 14 2.671875 13.328125 2 12.5 2 Z M 2.5 3 L 3 3 L 3 4 L 2 4 L 2 3.5 C 2 3.226563 2.222656 3 2.5 3 Z M 4 3 L 5 3 L 5 4 L 4 4 Z M 6 3 L 12.5 3 C 12.777344 3 13 3.226563 13 3.5 L 13 4 L 6 4 Z M 4.464844 8 L 5.878906 9.414063 L 1.023438 14.269531 L 1.726563 14.980469 L 6.585938 10.121094 L 8 11.535156 L 8 8 Z "/>
</g>
</svg>
