<?xml version="1.0" encoding="UTF-8" standalone="no"?>
<!DOCTYPE svg PUBLIC "-//W3C//DTD SVG 1.1//EN" "http://www.w3.org/Graphics/SVG/1.1/DTD/svg11.dtd">
<svg width="100%" height="100%" viewBox="0 0 16 16" version="1.1" xmlns="http://www.w3.org/2000/svg" xmlns:xlink="http://www.w3.org/1999/xlink" xml:space="preserve" xmlns:serif="http://www.serif.com/" style="fill-rule:evenodd;clip-rule:evenodd;stroke-linejoin:round;stroke-miterlimit:1.41421;">
    <path id="surface1" d="M2.5,2C1.672,2 1,2.672 1,3.5L1,12.5L2,11.5L2,5L13,5L13,12L6.5,12L5.5,13L14,13L14,3.5C14,2.672 13.328,2 12.5,2L2.5,2ZM2.5,3L3,3L3,4L2,4L2,3.5C2,3.227 2.223,3 2.5,3ZM4,3L5,3L5,4L4,4L4,3ZM6,3L12.5,3C12.777,3 13,3.227 13,3.5L13,4L6,4L6,3ZM4.465,8L5.879,9.414L1.023,14.27L1.727,14.98L6.586,10.121L8,11.535L8,8L4.465,8Z" style="fill:rgb(87,87,87);fill-rule:nonzero;"/>
</svg>
