<?xml version="1.0" encoding="UTF-8" standalone="no"?>
<!DOCTYPE svg PUBLIC "-//W3C//DTD SVG 1.1//EN" "http://www.w3.org/Graphics/SVG/1.1/DTD/svg11.dtd">
<svg width="100%" height="100%" viewBox="0 0 16 16" version="1.1" xmlns="http://www.w3.org/2000/svg" xmlns:xlink="http://www.w3.org/1999/xlink" xml:space="preserve" xmlns:serif="http://www.serif.com/" style="fill-rule:evenodd;clip-rule:evenodd;stroke-linejoin:round;stroke-miterlimit:1.41421;">
    <path id="surface1" d="M6,1L6,3L2.496,3C1.676,3 1,3.676 1,4.496L1,11.504C1,12.324 1.676,13 2.496,13L5,13L5,12L2.496,12C2.215,12 2,11.785 2,11.504L2,4.496C2,4.215 2.215,4 2.496,4L6,4L6,6L8.5,3.5L6,1ZM10,3L10,4L12.504,4C12.785,4 13,4.215 13,4.496L13,11.504C13,11.785 12.785,12 12.504,12L9,12L9,10L6.5,12.5L9,15L9,13L12.504,13C13.324,13 14,12.324 14,11.504L14,4.496C14,3.676 13.324,3 12.504,3L10,3Z" style="fill:rgb(87,87,87);fill-rule:nonzero;"/>
</svg>
