<?xml version="1.0" encoding="UTF-8"?>
<svg xmlns="http://www.w3.org/2000/svg" xmlns:xlink="http://www.w3.org/1999/xlink" viewBox="0 0 16 16" version="1.1">
<g id="surface1">
<path style=" " d="M 6 1 L 6 3 L 2.496094 3 C 1.675781 3 1 3.675781 1 4.496094 L 1 11.503906 C 1 12.324219 1.675781 13 2.496094 13 L 5 13 L 5 12 L 2.496094 12 C 2.214844 12 2 11.785156 2 11.503906 L 2 4.496094 C 2 4.214844 2.214844 4 2.496094 4 L 6 4 L 6 6 L 8.5 3.5 Z M 10 3 L 10 4 L 12.503906 4 C 12.785156 4 13 4.214844 13 4.496094 L 13 11.503906 C 13 11.785156 12.785156 12 12.503906 12 L 9 12 L 9 10 L 6.5 12.5 L 9 15 L 9 13 L 12.503906 13 C 13.324219 13 14 12.324219 14 11.503906 L 14 4.496094 C 14 3.675781 13.324219 3 12.503906 3 Z "/>
</g>
</svg>
