<?xml version="1.0" encoding="UTF-8" standalone="no"?>
<!DOCTYPE svg PUBLIC "-//W3C//DTD SVG 1.1//EN" "http://www.w3.org/Graphics/SVG/1.1/DTD/svg11.dtd">
<svg width="100%" height="100%" viewBox="0 0 16 16" version="1.1" xmlns="http://www.w3.org/2000/svg" xmlns:xlink="http://www.w3.org/1999/xlink" xml:space="preserve" xmlns:serif="http://www.serif.com/" style="fill-rule:evenodd;clip-rule:evenodd;stroke-linejoin:round;stroke-miterlimit:1.41421;">
    <path id="surface1" d="M4,2C1.895,2 0.23,3.078 0.23,3.078L0,3.227L0,13L15,13L15,3.227L14.77,3.078C14.77,3.078 13.105,2 11,2C9.555,2 8.477,2.531 7.5,3.395C6.523,2.531 5.445,2 4,2ZM4,3C5.316,3 6.121,3.387 7,4.227L7,11.938C6.109,11.301 5.168,11 4,11C2.738,11 1.684,11.379 1,11.691L1,3.813C1.297,3.637 2.453,3 4,3ZM11,3C12.547,3 13.703,3.637 14,3.813L14,11.691C13.316,11.379 12.262,11 11,11C9.832,11 8.891,11.301 8,11.938L8,4.227C8.879,3.387 9.684,3 11,3ZM11.5,4C11.223,4 11,4.223 11,4.5C11,4.777 11.223,5 11.5,5C11.777,5 12,4.777 12,4.5C12,4.223 11.777,4 11.5,4ZM10,6L10,7L11,7L11,10L12,10L12,6L10,6Z" style="fill:rgb(87,87,87);fill-rule:nonzero;"/>
</svg>
