<?xml version="1.0" encoding="UTF-8"?>
<svg xmlns="http://www.w3.org/2000/svg" xmlns:xlink="http://www.w3.org/1999/xlink" viewBox="0 0 16 16" version="1.1">
<g id="surface1">
<path style=" " d="M 4 2 C 1.894531 2 0.230469 3.078125 0.230469 3.078125 L 0 3.226563 L 0 13 L 15 13 L 15 3.226563 L 14.769531 3.078125 C 14.769531 3.078125 13.105469 2 11 2 C 9.554688 2 8.476563 2.53125 7.5 3.394531 C 6.523438 2.53125 5.445313 2 4 2 Z M 4 3 C 5.316406 3 6.121094 3.386719 7 4.226563 L 7 11.9375 C 6.109375 11.300781 5.167969 11 4 11 C 2.738281 11 1.683594 11.378906 1 11.691406 L 1 3.8125 C 1.296875 3.636719 2.453125 3 4 3 Z M 11 3 C 12.546875 3 13.703125 3.636719 14 3.8125 L 14 11.691406 C 13.316406 11.378906 12.261719 11 11 11 C 9.832031 11 8.890625 11.300781 8 11.9375 L 8 4.226563 C 8.878906 3.386719 9.683594 3 11 3 Z M 11.5 4 C 11.222656 4 11 4.222656 11 4.5 C 11 4.777344 11.222656 5 11.5 5 C 11.777344 5 12 4.777344 12 4.5 C 12 4.222656 11.777344 4 11.5 4 Z M 10 6 L 10 7 L 11 7 L 11 10 L 12 10 L 12 6 Z "/>
</g>
</svg>
