<?xml version="1.0" encoding="UTF-8"?>
<svg xmlns="http://www.w3.org/2000/svg" xmlns:xlink="http://www.w3.org/1999/xlink" viewBox="0 0 16 16" version="1.1">
<g id="surface1">
<path style=" " d="M 3 1 C 1.902344 1 1 1.902344 1 3 C 1 3.613281 1.289063 4.15625 1.726563 4.523438 C 1.265625 5.417969 1 6.429688 1 7.5 C 1 9.398438 1.824219 11.101563 3.125 12.292969 C 3.097656 12.324219 3.078125 12.355469 3.058594 12.390625 L 2.058594 14.265625 C 1.96875 14.425781 1.96875 14.621094 2.066406 14.773438 C 2.160156 14.929688 2.332031 15.023438 2.515625 15.015625 C 2.699219 15.003906 2.859375 14.898438 2.941406 14.734375 L 3.914063 12.914063 C 4.941406 13.597656 6.175781 14 7.5 14 C 8.824219 14 10.058594 13.597656 11.089844 12.914063 L 12.058594 14.734375 C 12.140625 14.898438 12.300781 15.003906 12.484375 15.015625 C 12.667969 15.023438 12.839844 14.929688 12.933594 14.773438 C 13.03125 14.621094 13.03125 14.425781 12.941406 14.265625 L 11.941406 12.390625 C 11.921875 12.355469 11.902344 12.324219 11.875 12.292969 C 13.175781 11.101563 14 9.398438 14 7.5 C 14 6.429688 13.734375 5.417969 13.273438 4.523438 C 13.710938 4.15625 14 3.613281 14 3 C 14 1.902344 13.097656 1 12 1 C 11.386719 1 10.84375 1.289063 10.476563 1.726563 C 9.582031 1.265625 8.574219 1 7.5 1 C 6.425781 1 5.417969 1.265625 4.523438 1.726563 C 4.15625 1.289063 3.613281 1 3 1 Z M 3 2 C 3.261719 2 3.492188 2.101563 3.667969 2.261719 C 3.128906 2.65625 2.65625 3.132813 2.257813 3.671875 C 2.097656 3.496094 2 3.261719 2 3 C 2 2.441406 2.441406 2 3 2 Z M 7.5 2 C 10.542969 2 13 4.457031 13 7.5 C 13 10.542969 10.542969 13 7.5 13 C 4.457031 13 2 10.542969 2 7.5 C 2 4.457031 4.457031 2 7.5 2 Z M 12 2 C 12.558594 2 13 2.441406 13 3 C 13 3.261719 12.902344 3.496094 12.738281 3.671875 C 12.34375 3.132813 11.871094 2.65625 11.332031 2.261719 C 11.507813 2.101563 11.738281 2 12 2 Z M 7 3 L 7 8 L 10 8 L 10 7 L 8 7 L 8 3 Z "/>
</g>
</svg>
