<?xml version="1.0" encoding="UTF-8" standalone="no"?>
<!DOCTYPE svg PUBLIC "-//W3C//DTD SVG 1.1//EN" "http://www.w3.org/Graphics/SVG/1.1/DTD/svg11.dtd">
<svg width="100%" height="100%" viewBox="0 0 16 16" version="1.1" xmlns="http://www.w3.org/2000/svg" xmlns:xlink="http://www.w3.org/1999/xlink" xml:space="preserve" xmlns:serif="http://www.serif.com/" style="fill-rule:evenodd;clip-rule:evenodd;stroke-linejoin:round;stroke-miterlimit:1.41421;">
    <path id="surface1" d="M3,1C1.902,1 1,1.902 1,3C1,3.613 1.289,4.156 1.727,4.523C1.266,5.418 1,6.43 1,7.5C1,9.398 1.824,11.102 3.125,12.293C3.098,12.324 3.078,12.355 3.059,12.391L2.059,14.266C1.969,14.426 1.969,14.621 2.066,14.773C2.16,14.93 2.332,15.023 2.516,15.016C2.699,15.004 2.859,14.898 2.941,14.734L3.914,12.914C4.941,13.598 6.176,14 7.5,14C8.824,14 10.059,13.598 11.09,12.914L12.059,14.734C12.141,14.898 12.301,15.004 12.484,15.016C12.668,15.023 12.84,14.93 12.934,14.773C13.031,14.621 13.031,14.426 12.941,14.266L11.941,12.391C11.922,12.355 11.902,12.324 11.875,12.293C13.176,11.102 14,9.398 14,7.5C14,6.43 13.734,5.418 13.273,4.523C13.711,4.156 14,3.613 14,3C14,1.902 13.098,1 12,1C11.387,1 10.844,1.289 10.477,1.727C9.582,1.266 8.574,1 7.5,1C6.426,1 5.418,1.266 4.523,1.727C4.156,1.289 3.613,1 3,1ZM3,2C3.262,2 3.492,2.102 3.668,2.262C3.129,2.656 2.656,3.133 2.258,3.672C2.098,3.496 2,3.262 2,3C2,2.441 2.441,2 3,2ZM7.5,2C10.543,2 13,4.457 13,7.5C13,10.543 10.543,13 7.5,13C4.457,13 2,10.543 2,7.5C2,4.457 4.457,2 7.5,2ZM12,2C12.559,2 13,2.441 13,3C13,3.262 12.902,3.496 12.738,3.672C12.344,3.133 11.871,2.656 11.332,2.262C11.508,2.102 11.738,2 12,2ZM7,3L7,8L10,8L10,7L8,7L8,3L7,3Z" style="fill:rgb(87,87,87);fill-rule:nonzero;"/>
</svg>
