<?xml version="1.0" encoding="UTF-8" standalone="no"?>
<!DOCTYPE svg PUBLIC "-//W3C//DTD SVG 1.1//EN" "http://www.w3.org/Graphics/SVG/1.1/DTD/svg11.dtd">
<svg width="100%" height="100%" viewBox="0 0 16 16" version="1.1" xmlns="http://www.w3.org/2000/svg" xmlns:xlink="http://www.w3.org/1999/xlink" xml:space="preserve" xmlns:serif="http://www.serif.com/" style="fill-rule:evenodd;clip-rule:evenodd;stroke-linejoin:round;stroke-miterlimit:1.41421;">
    <path d="M8,2C4.692,2 2,4.692 2,8C2,11.308 4.692,14 8,14C11.308,14 14,11.308 14,8L13,8C13,10.768 10.768,13 8,13C5.232,13 3,10.768 3,8C3,5.232 5.232,3 8,3C9.511,3 10.854,3.675 11.77,4.73L10.5,6L14,6L14,2.5L12.477,4.023C11.377,2.787 9.781,2 8,2Z" style="fill:rgb(87,87,87);fill-rule:nonzero;"/>
</svg>
