<?xml version="1.0"?>
<svg xmlns="http://www.w3.org/2000/svg" viewBox="0 0 16 16">
    <path style="line-height:normal;text-indent:0;text-align:start;text-decoration-line:none;text-decoration-style:solid;text-decoration-color:#000;text-transform:none;block-progression:tb;isolation:auto;mix-blend-mode:normal" d="M 8 2 C 4.6918661 2 2 4.6918661 2 8 C 2 11.308134 4.6918661 14 8 14 C 11.308134 14 14 11.308134 14 8 L 13 8 C 13 10.767866 10.767866 13 8 13 C 5.2321339 13 3 10.767866 3 8 C 3 5.2321339 5.2321339 3 8 3 C 9.5111059 3 10.853782 3.6750045 11.769531 4.7304688 L 10.5 6 L 14 6 L 14 2.5 L 12.476562 4.0234375 C 11.376868 2.7869844 9.7811274 2 8 2 z" font-weight="400" font-family="sans-serif" white-space="normal" overflow="visible"/>
</svg>
