<?xml version="1.0" encoding="UTF-8" standalone="no"?>
<!DOCTYPE svg PUBLIC "-//W3C//DTD SVG 1.1//EN" "http://www.w3.org/Graphics/SVG/1.1/DTD/svg11.dtd">
<svg width="100%" height="100%" viewBox="0 0 48 48" version="1.1" xmlns="http://www.w3.org/2000/svg" xmlns:xlink="http://www.w3.org/1999/xlink" xml:space="preserve" xmlns:serif="http://www.serif.com/" style="fill-rule:evenodd;clip-rule:evenodd;stroke-linejoin:round;stroke-miterlimit:1.41421;">
    <g id="surface1_134_" transform="matrix(1.15,0,0,1.15,-3.6,-3.6)">
        <path d="M44,41C44,42.656 42.656,44 41,44L25,44C23.344,44 22,42.656 22,41L22,24C22,22.344 23.344,21 25,21L41,21C42.656,21 44,22.344 44,24L44,41Z" style="fill:rgb(106,27,154);fill-rule:nonzero;"/>
        <path d="M24,4C12.956,4 4,12.956 4,24C4,35.044 12.956,44 24,44C35.044,44 44,35.044 44,24C44,12.956 35.044,4 24,4Z" style="fill:rgb(156,39,176);fill-rule:nonzero;"/>
        <path d="M40,24C40,32.836 32.836,40 24,40C15.164,40 8,32.836 8,24C8,15.164 15.164,8 24,8C32.836,8 40,15.164 40,24Z" style="fill:rgb(227,242,253);fill-rule:nonzero;"/>
        <path d="M29.027,29.941C28.23,29.941 28.632,28.089 28.632,27.8C28.73,27.652 28.03,19.71 28.03,19.71C28.132,19.417 28.229,19.128 28.729,19.128L28.929,19.128C30.023,19.128 30.921,18.249 30.921,17.179C30.921,16.105 30.023,15.23 28.929,15.23C27.835,15.23 26.937,16.105 26.937,17.179C26.937,17.374 26.937,17.566 27.035,17.761C27.035,17.761 27.437,18.738 26.539,18.64C26.539,18.64 19.008,21.253 18.644,21.32C17.722,23.004 15.281,22.14 14.589,21.562C14.39,21.269 13.991,21.074 13.491,21.074C12.694,21.074 11.999,21.758 11.999,22.539C12,23.316 12.695,24 13.492,24C13.793,24 14.09,23.902 14.289,23.805C15.484,23.219 17.676,23.61 17.976,24.684L17.976,24.782C18.019,25.001 19.581,28.012 19.769,28.29C20.765,30.142 18.273,30.919 18.273,30.919C17.578,30.919 16.98,31.505 16.98,32.282C16.98,33.063 17.675,33.743 18.472,33.743C19.269,33.743 19.968,33.063 19.968,32.282C20.163,30.723 20.964,29.751 22.456,29.653C22.686,29.727 26.237,29.458 26.538,29.36C27.636,29.555 27.034,30.43 27.034,31.895C27.034,32.965 27.932,33.84 29.026,33.84C30.124,33.84 31.018,32.965 31.018,31.895C31.02,30.82 30.125,29.941 29.027,29.941Z" style="fill:rgb(46,125,50);fill-rule:nonzero;"/>
        <path d="M33.41,20.102C32.812,20.102 32.316,20.395 32.117,20.883C31.519,21.758 30.222,21.953 29.426,21.567C29.281,21.227 20.863,18.934 20.863,19.032C19.769,19.618 18.773,17.766 18.871,16.887L18.871,16.789C18.973,16.594 18.973,16.398 18.973,16.203C18.973,15.133 18.075,14.258 16.981,14.258C15.887,14.258 14.989,15.133 14.989,16.203C14.989,17.082 15.587,17.766 16.286,18.058C17.395,18.507 18.931,19.882 18.825,20.781C19.266,21.574 18.2,25.746 18.278,26.047C17.68,26.633 16.485,26.535 15.985,26.34C15.786,26.047 15.387,25.949 14.989,25.949C13.895,25.949 12.997,26.824 12.997,27.898C12.997,28.968 13.895,29.847 14.989,29.847C15.688,29.847 16.184,29.554 16.583,29.066C17.181,28.191 18.177,27.41 19.071,27.41C19.204,27.601 29.926,23.418 29.926,23.32C30.028,22.929 31.617,22.539 33.016,22.832L33.411,22.832C34.208,22.832 34.907,22.148 34.907,21.371C34.906,20.59 34.207,20.102 33.41,20.102Z" style="fill:rgb(76,175,80);fill-rule:nonzero;"/>
        <path d="M30,24C30,27.313 27.312,30 24,30C20.687,30 18,27.312 18,24C18,20.688 20.687,18 24,18C27.312,18 30,20.688 30,24Z" style="fill:rgb(76,175,80);fill-rule:nonzero;"/>
        <path d="M25.543,29.652C25.766,29.222 25.012,29.093 24.418,29.113C23.824,29.136 23.25,29.476 23.359,29.855C24.941,32.281 23.75,32.574 23.054,33.062C22.452,33.351 22.058,34.035 22.058,34.718C22.058,35.788 22.953,36.663 24.05,36.663C25.144,36.663 26.038,35.788 26.038,34.718C26.043,32.867 24.848,30.234 25.543,29.652Z" style="fill:rgb(76,175,80);fill-rule:nonzero;"/>
        <path d="M33.906,25.949C33.511,25.949 33.113,26.047 32.812,26.238C31.625,26.722 30.535,25.859 29.742,25.277C29.344,25.031 28.89,25.656 28.762,25.906C28.629,26.156 28.426,27.039 29.227,27.019C30.582,26.581 32.215,28.871 32.215,28.871C32.516,29.555 33.211,29.941 34.008,29.941C35.106,29.941 36,29.066 36,27.992C35.898,26.824 35.004,25.949 33.906,25.949Z" style="fill:rgb(76,175,80);fill-rule:nonzero;"/>
        <path d="M22.258,14.355C23.551,16.984 23.453,17.96 22.754,18.253C22.137,18.694 23.137,19.3 23.875,19.21C24.613,19.112 25.281,18.749 24.82,18.105C23.679,16.085 25.144,14.742 25.144,14.742C25.644,14.449 25.941,13.867 25.941,13.281C25.941,12.211 25.046,11.336 23.949,11.336C22.855,11.336 21.957,12.211 21.957,13.281C21.957,13.574 22.059,13.867 22.156,14.156C22.156,14.258 22.156,14.258 22.258,14.355Z" style="fill:rgb(76,175,80);fill-rule:nonzero;"/>
        <path d="M26,27C25.398,27 25,26.602 25,26C25,25.398 25.398,25 26,25C26.602,25 27,25.398 27,26C27,26.602 26.602,27 26,27Z" style="fill:rgb(241,248,233);fill-rule:nonzero;"/>
        <path d="M23,24C21.934,24 21,23.066 21,22C21,20.934 21.934,20 23,20C24.066,20 25,20.934 25,22C25,23.066 24.066,24 23,24Z" style="fill:rgb(220,237,200);fill-rule:nonzero;"/>
    </g>
</svg>
