<?xml version="1.0" encoding="UTF-8" standalone="no"?>
<!DOCTYPE svg PUBLIC "-//W3C//DTD SVG 1.1//EN" "http://www.w3.org/Graphics/SVG/1.1/DTD/svg11.dtd">
<svg width="100%" height="100%" viewBox="0 0 16 16" version="1.1" xmlns="http://www.w3.org/2000/svg" xmlns:xlink="http://www.w3.org/1999/xlink" xml:space="preserve" xmlns:serif="http://www.serif.com/" style="fill-rule:evenodd;clip-rule:evenodd;stroke-linejoin:round;stroke-miterlimit:1.41421;">
    <path d="M3.5,1C3.226,1 3,1.226 3,1.5L3,5L4,5L4,2L12,2L12,14L13,14L13,1.5C13,1.226 12.774,1 12.5,1L3.5,1ZM7.471,3C6.648,3 5.971,3.677 5.971,4.5C5.971,5.323 6.648,6 7.471,6C8.293,6 8.971,5.323 8.971,4.5C8.971,3.677 8.293,3 7.471,3ZM7.471,4C7.753,4 7.971,4.218 7.971,4.5C7.971,4.782 7.753,5 7.471,5C7.189,5 6.971,4.782 6.971,4.5C6.971,4.218 7.189,4 7.471,4ZM6.484,5.998C6.439,6 6.395,6.008 6.352,6.021L4.412,6.623C4.312,6.654 4.225,6.716 4.162,6.799L3.102,8.197C3.035,8.284 3,8.391 3,8.5C3,8.775 3.225,9 3.5,9C3.656,9 3.804,8.927 3.898,8.803L4.861,7.529L5.895,7.211L5.301,11.48L3.365,12.018C3.149,12.078 2.999,12.276 2.999,12.5C2.999,12.775 3.225,13.001 3.5,13.001C3.546,13.001 3.591,12.995 3.635,12.982L5.885,12.357C6.077,12.304 6.219,12.141 6.246,11.943L6.4,10.832L7.666,11.781L7.979,13.586C8.011,13.833 8.225,14.02 8.474,14.02C8.749,14.02 8.974,13.794 8.974,13.52C8.974,13.484 8.97,13.449 8.963,13.414L8.617,11.414C8.596,11.289 8.527,11.176 8.426,11.1L6.559,9.699L6.834,7.734L7.357,8.734C7.444,8.899 7.615,9.002 7.801,9.002L9.5,9C9.502,9 9.505,9 9.507,9C9.781,9 10.007,8.774 10.007,8.5C10.007,8.226 9.781,8 9.507,8C9.505,8 9.502,8 9.5,8L8.102,8.002L7.193,6.268C7.107,6.103 6.936,6 6.75,6L6.563,6C6.537,5.997 6.51,5.997 6.484,5.998Z" style="fill:rgb(87,87,87);fill-rule:nonzero;"/>
</svg>
