<?xml version="1.0"?>
<svg xmlns="http://www.w3.org/2000/svg" viewBox="0 0 16 16">
    <path style="line-height:normal;text-indent:0;text-align:start;text-decoration-line:none;text-decoration-style:solid;text-decoration-color:#000;text-transform:none;block-progression:tb;isolation:auto;mix-blend-mode:normal" d="M 3.5 1 A 0.50005 0.50005 0 0 0 3 1.5 L 3 5 L 4 5 L 4 2 L 12 2 L 12 14 L 13 14 L 13 1.5 A 0.50005 0.50005 0 0 0 12.5 1 L 3.5 1 z M 7.4707031 3 C 6.6481983 3 5.9707031 3.6774952 5.9707031 4.5 C 5.9707031 5.3225048 6.6481983 6 7.4707031 6 C 8.2932079 6 8.9707031 5.3225048 8.9707031 4.5 C 8.9707031 3.6774952 8.2932079 3 7.4707031 3 z M 7.4707031 4 C 7.7527678 4 7.9707031 4.2179353 7.9707031 4.5 C 7.9707031 4.7820647 7.7527678 5 7.4707031 5 C 7.1886384 5 6.9707031 4.7820647 6.9707031 4.5 C 6.9707031 4.2179353 7.1886384 4 7.4707031 4 z M 6.484375 5.9980469 A 0.50005 0.50005 0 0 0 6.3515625 6.0214844 L 4.4121094 6.6230469 A 0.50005 0.50005 0 0 0 4.1621094 6.7988281 L 3.1015625 8.1972656 A 0.5004004 0.5004004 0 1 0 3.8984375 8.8027344 L 4.8613281 7.5292969 L 5.8945312 7.2109375 L 5.3007812 11.480469 L 3.3652344 12.017578 A 0.50089196 0.50089196 0 1 0 3.6347656 12.982422 L 5.8847656 12.357422 A 0.50005 0.50005 0 0 0 6.2460938 11.943359 L 6.4003906 10.832031 L 7.6660156 11.78125 L 7.9785156 13.585938 A 0.50005 0.50005 0 1 0 8.9628906 13.414062 L 8.6171875 11.414062 A 0.50005 0.50005 0 0 0 8.4257812 11.099609 L 6.5585938 9.6992188 L 6.8339844 7.734375 L 7.3574219 8.734375 A 0.50005 0.50005 0 0 0 7.8007812 9.0019531 L 9.5 9 A 0.50005 0.50005 0 1 0 9.5 8 L 8.1015625 8.0019531 L 7.1933594 6.2675781 A 0.50005 0.50005 0 0 0 6.75 6 L 6.5625 6 A 0.50005 0.50005 0 0 0 6.484375 5.9980469 z" font-weight="400" font-family="sans-serif" white-space="normal" overflow="visible"/>
</svg>
