<?xml version="1.0"?>
<svg xmlns="http://www.w3.org/2000/svg" viewBox="0 0 16 16">
    <path style="line-height:normal;text-indent:0;text-align:start;text-decoration-line:none;text-decoration-style:solid;text-decoration-color:#000;text-transform:none;block-progression:tb;isolation:auto;mix-blend-mode:normal" d="M 4.4746094 2 C 3.652078 2 2.9746094 2.6774686 2.9746094 3.5 L 2.9746094 12.5 C 2.9746094 13.322531 3.652078 14 4.4746094 14 L 7 14 L 7 13 L 4.4746094 13 C 4.1931408 13 3.9746094 12.781469 3.9746094 12.5 L 3.9746094 3.5 C 3.9746094 3.2185314 4.1931408 3 4.4746094 3 L 8.9746094 3 L 8.9746094 6 L 11.974609 6 L 11.974609 7 L 12.974609 7 L 12.974609 5.2929688 L 9.6816406 2 L 4.4746094 2 z M 9.9746094 3.7070312 L 11.267578 5 L 9.9746094 5 L 9.9746094 3.7070312 z M 14.181641 8.0039062 C 13.852793 8.0060063 13.524694 8.133896 13.279297 8.3847656 L 8.65625 13.087891 L 7.9511719 16.050781 L 10.912109 15.345703 L 11.011719 15.248047 L 15.617188 10.724609 C 16.121135 10.232078 16.125117 9.4083549 15.626953 8.9101562 L 15.091797 8.375 C 14.842513 8.1257164 14.511951 8.0017983 14.181641 8.0039062 z M 14.1875 8.9980469 C 14.257164 8.9976056 14.328049 9.0253133 14.384766 9.0820312 L 14.919922 9.6171875 C 15.031723 9.7289889 15.032068 9.8982967 14.917969 10.009766 L 14.917969 10.011719 L 10.412109 14.435547 L 9.3007812 14.701172 L 9.5644531 13.591797 L 13.992188 9.0859375 L 13.994141 9.0839844 C 14.049392 9.0270814 14.117836 8.9984881 14.1875 8.9980469 z" font-weight="400" font-family="sans-serif" white-space="normal" overflow="visible"/>
</svg>
