<?xml version="1.0" encoding="UTF-8" standalone="no"?>
<!DOCTYPE svg PUBLIC "-//W3C//DTD SVG 1.1//EN" "http://www.w3.org/Graphics/SVG/1.1/DTD/svg11.dtd">
<svg width="100%" height="100%" viewBox="0 0 16 16" version="1.1" xmlns="http://www.w3.org/2000/svg" xmlns:xlink="http://www.w3.org/1999/xlink" xml:space="preserve" xmlns:serif="http://www.serif.com/" style="fill-rule:evenodd;clip-rule:evenodd;stroke-linejoin:round;stroke-miterlimit:1.41421;">
    <path d="M4.5,2C3.677,2 3,2.677 3,3.5L3,12.5C3,13.323 3.677,14 4.5,14L7.762,14C8.57,15.205 9.945,16 11.5,16C13.979,16 16,13.979 16,11.5C16,9.549 14.742,7.897 13,7.275L13,5.293L9.707,2L4.5,2ZM4.5,3L9,3L9,6L12,6L12,7.051C11.834,7.032 11.671,7 11.5,7C9.021,7 7,9.021 7,11.5C7,12.028 7.107,12.529 7.275,13L4.5,13C4.219,13 4,12.781 4,12.5L4,3.5C4,3.219 4.219,3 4.5,3ZM10,3.707L11.293,5L10,5L10,3.707ZM11.5,8C13.439,8 15,9.561 15,11.5C15,13.439 13.439,15 11.5,15C9.561,15 8,13.439 8,11.5C8,9.561 9.561,8 11.5,8ZM11,9L11,11L9,11L9,12L11,12L11,14L12,14L12,12L14,12L14,11L12,11L12,9L11,9Z" style="fill:rgb(87,87,87);fill-rule:nonzero;"/>
</svg>
