<?xml version="1.0"?>
<svg xmlns="http://www.w3.org/2000/svg" viewBox="0 0 16 16">
    <path style="line-height:normal;text-indent:0;text-align:start;text-decoration-line:none;text-decoration-style:solid;text-decoration-color:#000;text-transform:none;block-progression:tb;isolation:auto;mix-blend-mode:normal" d="M 4.5 2 C 3.6774686 2 3 2.6774686 3 3.5 L 3 12.5 C 3 13.322531 3.6774686 14 4.5 14 L 7.7617188 14 C 8.5704696 15.204592 9.94479 16 11.5 16 C 13.979359 16 16 13.979359 16 11.5 C 16 9.5487862 14.741637 7.8970971 13 7.2753906 L 13 5.2929688 L 9.7070312 2 L 4.5 2 z M 4.5 3 L 9 3 L 9 6 L 12 6 L 12 7.0507812 C 11.833538 7.0319923 11.67136 7 11.5 7 C 9.0206409 7 7 9.0206409 7 11.5 C 7 12.028145 7.1071101 12.528582 7.2753906 13 L 4.5 13 C 4.2185314 13 4 12.781469 4 12.5 L 4 3.5 C 4 3.2185314 4.2185314 3 4.5 3 z M 10 3.7070312 L 11.292969 5 L 10 5 L 10 3.7070312 z M 11.5 8 C 13.438919 8 15 9.5610811 15 11.5 C 15 13.438919 13.438919 15 11.5 15 C 9.5610811 15 8 13.438919 8 11.5 C 8 9.5610811 9.5610811 8 11.5 8 z M 11 9 L 11 11 L 9 11 L 9 12 L 11 12 L 11 14 L 12 14 L 12 12 L 14 12 L 14 11 L 12 11 L 12 9 L 11 9 z" font-weight="400" font-family="sans-serif" white-space="normal" overflow="visible"/>
</svg>
