<?xml version="1.0" encoding="UTF-8" standalone="no"?>
<!DOCTYPE svg PUBLIC "-//W3C//DTD SVG 1.1//EN" "http://www.w3.org/Graphics/SVG/1.1/DTD/svg11.dtd">
<svg width="100%" height="100%" viewBox="0 0 16 16" version="1.1" xmlns="http://www.w3.org/2000/svg" xmlns:xlink="http://www.w3.org/1999/xlink" xml:space="preserve" xmlns:serif="http://www.serif.com/" style="fill-rule:evenodd;clip-rule:evenodd;stroke-linejoin:round;stroke-miterlimit:1.41421;">
    <path d="M4.475,2C3.652,2 2.975,2.677 2.975,3.5L2.975,12.5C2.975,13.323 3.652,14 4.475,14L9,14L9,13L4.475,13C4.193,13 3.975,12.781 3.975,12.5L3.975,3.5C3.975,3.219 4.193,3 4.475,3L8.975,3L8.975,6L11.975,6L11.975,9L12.975,9L12.975,5.293L9.682,2L4.475,2ZM9.975,3.707L11.268,5L9.975,5L9.975,3.707ZM10.729,10.021L10.021,10.729L12.293,13L10.021,15.271L10.729,15.979L13,13.707L15.271,15.979L15.979,15.271L13.707,13L15.979,10.729L15.271,10.021L13,12.293L10.729,10.021Z" style="fill:rgb(87,87,87);fill-rule:nonzero;"/>
</svg>
