<?xml version="1.0" encoding="UTF-8" standalone="no"?>
<!DOCTYPE svg PUBLIC "-//W3C//DTD SVG 1.1//EN" "http://www.w3.org/Graphics/SVG/1.1/DTD/svg11.dtd">
<svg width="100%" height="100%" viewBox="0 0 16 16" version="1.1" xmlns="http://www.w3.org/2000/svg" xmlns:xlink="http://www.w3.org/1999/xlink" xml:space="preserve" xmlns:serif="http://www.serif.com/" style="fill-rule:evenodd;clip-rule:evenodd;stroke-linejoin:round;stroke-miterlimit:1.41421;">
    <path d="M4.475,2C3.652,2 2.975,2.677 2.975,3.5L2.975,12.5C2.975,13.323 3.652,14 4.475,14L7,14L7,13L4.475,13C4.193,13 3.975,12.781 3.975,12.5L3.975,3.5C3.975,3.219 4.193,3 4.475,3L8.975,3L8.975,6L11.975,6L11.975,7L12.975,7L12.975,5.293L9.682,2L4.475,2ZM9.975,3.707L11.268,5L9.975,5L9.975,3.707ZM14.182,8.004C13.853,8.006 13.525,8.134 13.279,8.385L8.656,13.088L7.951,16.051L10.912,15.346L11.012,15.248L15.617,10.725C16.121,10.232 16.125,9.408 15.627,8.91L15.092,8.375C14.843,8.126 14.512,8.002 14.182,8.004ZM14.188,8.998C14.257,8.998 14.328,9.025 14.385,9.082L14.92,9.617C15.032,9.729 15.032,9.898 14.918,10.01L14.918,10.012L10.412,14.436L9.301,14.701L9.564,13.592L13.992,9.086L13.994,9.084C14.049,9.027 14.118,8.998 14.188,8.998Z" style="fill:rgb(87,87,87);fill-rule:nonzero;"/>
</svg>
