<?xml version="1.0" encoding="UTF-8" standalone="no"?>
<!DOCTYPE svg PUBLIC "-//W3C//DTD SVG 1.1//EN" "http://www.w3.org/Graphics/SVG/1.1/DTD/svg11.dtd">
<svg width="100%" height="100%" viewBox="0 0 16 16" version="1.1" xmlns="http://www.w3.org/2000/svg" xmlns:xlink="http://www.w3.org/1999/xlink" xml:space="preserve" xmlns:serif="http://www.serif.com/" style="fill-rule:evenodd;clip-rule:evenodd;stroke-linejoin:round;stroke-miterlimit:1.41421;">
    <path id="surface1" d="M7.5,1.008C6.957,1.008 6.414,1.266 6.105,1.781L0.227,11.605C-0.398,12.645 0.402,14 1.617,14L13.379,14C14.598,14 15.398,12.645 14.777,11.605L8.895,1.781C8.586,1.266 8.043,1.008 7.5,1.008ZM7.5,1.992C7.707,1.992 7.914,2.094 8.039,2.297L13.918,12.117C14.164,12.527 13.891,13 13.379,13L1.617,13C1.109,13 0.836,12.527 1.082,12.117L6.961,2.297C7.086,2.094 7.293,1.992 7.5,1.992ZM6.992,5L6.992,10L7.992,10L7.992,5L6.992,5ZM6.992,11L6.992,12L7.992,12L7.992,11L6.992,11Z" style="fill:rgb(87,87,87);fill-rule:nonzero;"/>
</svg>
