<?xml version="1.0"?>
<svg xmlns="http://www.w3.org/2000/svg" viewBox="0 0 16 16">
    <path style="line-height:normal;text-indent:0;text-align:start;text-decoration-line:none;text-decoration-style:solid;text-decoration-color:#000;text-transform:none;block-progression:tb;isolation:auto;mix-blend-mode:normal" d="M 4.4746094 2 C 3.652078 2 2.9746094 2.6774686 2.9746094 3.5 L 2.9746094 12.5 C 2.9746094 13.322531 3.652078 14 4.4746094 14 L 9 14 L 9 13 L 4.4746094 13 C 4.1931408 13 3.9746094 12.781469 3.9746094 12.5 L 3.9746094 3.5 C 3.9746094 3.2185314 4.1931408 3 4.4746094 3 L 8.9746094 3 L 8.9746094 6 L 11.974609 6 L 11.974609 9 L 12.974609 9 L 12.974609 5.2929688 L 9.6816406 2 L 4.4746094 2 z M 9.9746094 3.7070312 L 11.267578 5 L 9.9746094 5 L 9.9746094 3.7070312 z M 10.728516 10.021484 L 10.021484 10.728516 L 12.292969 13 L 10.021484 15.271484 L 10.728516 15.978516 L 13 13.707031 L 15.271484 15.978516 L 15.978516 15.271484 L 13.707031 13 L 15.978516 10.728516 L 15.271484 10.021484 L 13 12.292969 L 10.728516 10.021484 z" font-weight="400" font-family="sans-serif" white-space="normal" overflow="visible"/>
</svg>
