<?xml version="1.0" encoding="UTF-8" standalone="no"?>
<!DOCTYPE svg PUBLIC "-//W3C//DTD SVG 1.1//EN" "http://www.w3.org/Graphics/SVG/1.1/DTD/svg11.dtd">
<svg width="100%" height="100%" viewBox="0 0 238 100" version="1.1" xmlns="http://www.w3.org/2000/svg" xmlns:xlink="http://www.w3.org/1999/xlink" xml:space="preserve" xmlns:serif="http://www.serif.com/" style="fill-rule:evenodd;clip-rule:evenodd;stroke-linejoin:round;stroke-miterlimit:1.41421;">
    <g transform="matrix(0.880612,0,0,0.884027,30.0563,13.1347)">
        <g transform="matrix(1.70336,0,0,1.69008,160.052,11.2131)">
            <path d="M40,12L22,12L18,8L8,8C5.801,8 4,9.801 4,12L4,20L44,20L44,16C44,13.801 42.199,12 40,12Z" style="fill:rgb(148,221,255);fill-rule:nonzero;"/>
        </g>
        <g transform="matrix(1.70336,0,0,1.69008,160.052,11.4274)">
            <path d="M40,12L8,12C5.801,12 4,13.801 4,16L4,36C4,38.199 5.801,40 8,40L40,40C42.199,40 44,38.199 44,36L44,16C44,13.801 42.199,12 40,12Z" style="fill:rgb(113,208,250);fill-rule:nonzero;"/>
        </g>
        <g transform="matrix(1.70336,0,0,1.69008,160.052,11.2131)">
            <path d="M34,18L14,18L14,34L34,34L34,18ZM23,33L23,31L25,31L25,33L23,33ZM27,33L27,31L29,31L29,33L27,33ZM31,33L31,31L33,31L33,33L31,33ZM19,33L19,31L21,31L21,33L19,33ZM15,33L15,31L17,31L17,33L15,33ZM23,21L23,19L25,19L25,21L23,21ZM27,21L27,19L29,19L29,21L27,21ZM31,21L31,19L33,19L33,21L31,21ZM19,21L19,19L21,19L21,21L19,21ZM15,21L15,19L17,19L17,21L15,21Z" style="fill:rgb(84,183,231);fill-rule:nonzero;"/>
        </g>
    </g>
    <g transform="matrix(-1.31373,0,0,0.428723,256.882,37.7011)">
        <path d="M63.851,87L57,66.007L63.851,45.015L159,45.015L159,87L63.851,87Z" style="fill:rgb(99,130,145);"/>
    </g>
    <g transform="matrix(-1.02941,0,0,0.428723,211.676,37.7011)">
        <path d="M65.743,87L57,66.007L65.743,45.015L159,45.015L159,87L65.743,87Z" style="fill:rgb(123,142,152);"/>
    </g>
    <g transform="matrix(0.127277,0,0,0.12766,30.8312,-14.862)">
        <g transform="matrix(2.84134,0,0,2.84134,-4223.56,-1870.46)">
            <path d="M1622.65,883.366L1622.65,928.45C1622.65,942.248 1611.45,953.45 1597.65,953.45C1583.86,953.45 1572.65,942.248 1572.65,928.45L1572.66,928.45C1572.65,928.398 1572.65,928.345 1572.65,928.291C1572.65,923.877 1576.24,920.293 1580.65,920.293C1585.07,920.293 1588.65,923.877 1588.65,928.291C1588.65,928.419 1588.65,928.546 1588.64,928.672C1588.8,933.592 1592.78,937.467 1597.65,937.467C1602.63,937.467 1606.67,933.427 1606.67,928.45L1606.67,883.366L1622.65,883.366Z" style="fill:rgb(251,107,83);"/>
        </g>
        <g transform="matrix(2.84134,0,0,2.84134,-4223.51,-1870.46)">
            <path d="M1726.65,905.156L1726.65,928.45C1726.65,933.427 1730.69,937.467 1735.67,937.467C1740.55,937.467 1744.52,933.592 1744.68,928.672C1744.68,928.546 1744.67,928.419 1744.67,928.291C1744.67,923.877 1748.26,920.293 1752.67,920.293C1757.09,920.293 1760.67,923.877 1760.67,928.291C1760.67,928.345 1760.67,928.398 1760.67,928.45C1760.67,942.248 1749.47,953.45 1735.67,953.45C1721.87,953.45 1710.67,942.248 1710.67,928.45L1710.67,883.366L1726.65,883.366L1726.65,905.156Z" style="fill:rgb(251,107,83);"/>
        </g>
        <g transform="matrix(2.84134,0,0,2.84134,-4223.56,-1870.46)">
            <path d="M1656.67,858.366L1656.67,944.45C1656.67,958.248 1645.47,969.45 1631.67,969.45C1617.87,969.45 1606.67,958.248 1606.67,944.45C1606.67,944.398 1606.67,944.345 1606.67,944.291C1606.67,939.877 1610.26,936.293 1614.67,936.293C1619.08,936.293 1622.67,939.877 1622.67,944.291C1622.67,944.419 1622.66,944.546 1622.66,944.672C1622.82,949.592 1626.8,953.467 1631.67,953.467C1636.65,953.467 1640.69,949.427 1640.69,944.45L1640.69,858.366L1656.67,858.366Z" style="fill:rgb(249,125,106);"/>
        </g>
        <g transform="matrix(2.84134,0,0,2.84134,-4223.56,-1870.46)">
            <path d="M1692.64,944.45C1692.64,949.427 1696.68,953.467 1701.65,953.467C1706.53,953.467 1710.51,949.592 1710.67,944.672C1710.66,944.546 1710.66,944.419 1710.66,944.291C1710.66,939.877 1714.24,936.293 1718.66,936.293C1723.07,936.293 1726.65,939.877 1726.65,944.291C1726.65,944.345 1726.65,944.398 1726.65,944.45C1726.65,958.248 1715.45,969.45 1701.65,969.45C1687.86,969.45 1676.65,958.248 1676.65,944.45L1676.65,858.366L1692.64,858.366L1692.64,944.45Z" style="fill:rgb(249,125,106);"/>
        </g>
        <g transform="matrix(2.84134,0,0,2.84134,91.4573,-32.1511)">
            <path d="M88.017,129.559C88.017,91.477 114.902,60.559 148.017,60.559L148.405,60.561C181.341,60.801 208.017,91.625 208.017,129.559L208.017,237.559C158.042,250.447 116.719,250.339 88.017,237.559L88.017,129.559Z" style="fill:rgb(249,125,106);"/>
        </g>
        <g transform="matrix(2.84134,0,0,2.84134,91.4573,-32.1511)">
            <path d="M132.997,62.744C137.775,61.321 142.819,60.559 148.017,60.559L148.405,60.561C181.341,60.801 208.017,91.625 208.017,129.559L208.017,237.559C197.619,240.241 187.597,242.359 178,243.886L178,129.559C178,97.439 158.874,70.416 132.997,62.744Z" style="fill:rgb(251,107,83);"/>
        </g>
        <g id="antifaz" transform="matrix(2.84134,0,0,2.84134,-1641.71,-925.585)">
            <rect x="698" y="449" width="120" height="21" style="fill:rgb(102,102,102);"/>
        </g>
        <g transform="matrix(28.4295,0,0,5.96682,-48130.9,-2627.26)">
            <rect x="1714" y="499" width="3" height="10" style="fill:rgb(91,91,91);"/>
        </g>
        <g id="ull-esquerra" serif:id="ull esquerra" transform="matrix(2.84134,0,0,2.84134,-1485.44,-922.744)">
            <circle cx="723.5" cy="458.5" r="4.5" style="fill:white;"/>
        </g>
        <g id="ull-dret" serif:id="ull dret" transform="matrix(2.84134,0,0,2.84134,-1428.61,-922.744)">
            <circle cx="723.5" cy="458.5" r="4.5" style="fill:white;"/>
        </g>
    </g>
    <g id="surface1" transform="matrix(-1.875,-0.00224199,-0.00224199,1.875,84.576,4.55374)">
        <path d="M38,20.5C38,25.195 34.195,29 29.5,29C24.805,29 21,25.195 21,20.5C21,15.805 24.805,12 29.5,12C34.195,12 38,15.805 38,20.5Z" style="fill:rgb(187,222,251);fill-rule:nonzero;"/>
        <path d="M44,28.895C44,32.758 40.867,35.895 37,35.895C33.133,35.895 30,32.758 30,28.895C30,25.027 33.133,21.895 37,21.895C40.867,21.895 44,25.027 44,28.895Z" style="fill:rgb(187,222,251);fill-rule:nonzero;"/>
        <path d="M18,29C18,32.867 14.867,36 11,36C7.133,36 4,32.867 4,29C4,25.133 7.133,22 11,22C14.867,22 18,25.133 18,29Z" style="fill:rgb(187,222,251);fill-rule:nonzero;"/>
        <path d="M24,21.5C24,25.09 21.09,28 17.5,28C13.91,28 11,25.09 11,21.5C11,17.91 13.91,15 17.5,15C21.09,15 24,17.91 24,21.5Z" style="fill:rgb(187,222,251);fill-rule:nonzero;"/>
        <path d="M32,26.895C32,30.758 28.867,33.895 25,33.895C21.133,33.895 18,30.758 18,26.895C18,23.027 21.133,19.895 25,19.895C28.867,19.895 32,23.027 32,26.895Z" style="fill:rgb(187,222,251);fill-rule:nonzero;"/>
        <path d="M7,32C7,34.211 8.789,36 11,36L36,36C38.211,36 40,34.211 40,32L40,31C40,28.789 38.211,27 36,27L11,27C8.789,27 7,28.789 7,31L7,32Z" style="fill:rgb(187,222,251);fill-rule:nonzero;"/>
    </g>
    <g transform="matrix(1.5,0,0,1.5,-3,24)">
        <path d="M34,18L14,18L14,34L34,34L34,18ZM23,33L23,31L25,31L25,33L23,33ZM27,33L27,31L29,31L29,33L27,33ZM31,33L31,31L33,31L33,33L31,33ZM19,33L19,31L21,31L21,33L19,33ZM15,33L15,31L17,31L17,33L15,33ZM23,21L23,19L25,19L25,21L23,21ZM27,21L27,19L29,19L29,21L27,21ZM31,21L31,19L33,19L33,21L31,21ZM19,21L19,19L21,19L21,21L19,21ZM15,21L15,19L17,19L17,21L15,21Z" style="fill:rgb(88,162,16);fill-rule:nonzero;"/>
    </g>
</svg>
