<?xml version="1.0" encoding="UTF-8" standalone="no"?><!DOCTYPE svg PUBLIC "-//W3C//DTD SVG 1.1//EN" "http://www.w3.org/Graphics/SVG/1.1/DTD/svg11.dtd"><svg width="120px" height="120px" version="1.1" xmlns="http://www.w3.org/2000/svg" xmlns:xlink="http://www.w3.org/1999/xlink" xml:space="preserve" xmlns:serif="http://www.serif.com/" style="fill-rule:evenodd;clip-rule:evenodd;stroke-linejoin:round;stroke-miterlimit:2;"><circle cx="49.745" cy="59.745" r="49.745" style="fill:#008ea0;"/><path d="M55.263,51.54l0,31.891c0,2.209 -0.526,3.88 -1.577,5.012c-1.051,1.132 -2.385,1.697 -4.001,1.697c-1.617,0 -2.931,-0.579 -3.941,-1.738c-1.011,-1.158 -1.516,-2.815 -1.516,-4.971l0,-31.567c0,-2.183 0.505,-3.827 1.516,-4.932c1.01,-1.104 2.324,-1.657 3.941,-1.657c1.616,0 2.95,0.553 4.001,1.657c1.051,1.105 1.577,2.641 1.577,4.608Zm-5.457,-11.398c-1.536,0 -2.85,-0.472 -3.941,-1.415c-1.091,-0.943 -1.637,-2.277 -1.637,-4.001c0,-1.563 0.559,-2.85 1.677,-3.86c1.119,-1.011 2.419,-1.516 3.901,-1.516c1.428,0 2.695,0.458 3.799,1.374c1.105,0.917 1.658,2.25 1.658,4.002c0,1.697 -0.539,3.025 -1.617,3.981c-1.078,0.957 -2.358,1.435 -3.84,1.435Z" style="fill:#fff;fill-rule:nonzero;"/><g><path d="M75.775,85.003l0,14.458c0,4.426 -3.588,8.018 -8.01,8.018c-4.418,0 -8.009,-3.592 -8.009,-8.018l0.003,0c-0.003,-0.016 -0.003,-0.033 -0.003,-0.051c0,-1.415 1.15,-2.565 2.563,-2.565c1.416,0 2.563,1.15 2.563,2.565c0,0.041 0,0.082 -0.003,0.123c0.051,1.577 1.326,2.82 2.886,2.82c1.596,0 2.89,-1.295 2.89,-2.892l0,-14.458l5.12,0Z" style="fill:#fb6b53;"/><path d="M109.101,91.991l0,7.47c0,1.597 1.294,2.892 2.889,2.892c1.564,0 2.836,-1.243 2.887,-2.82c0,-0.041 -0.003,-0.082 -0.003,-0.123c0,-1.415 1.15,-2.565 2.563,-2.565c1.416,0 2.563,1.15 2.563,2.565l0,0.051c0,4.426 -3.588,8.018 -8.01,8.018c-4.421,0 -8.009,-3.592 -8.009,-8.018l0,-14.458l5.12,0l0,6.988Z" style="fill:#fb6b53;"/><path d="M86.675,76.985l0,27.608c0,4.425 -3.589,8.017 -8.01,8.017c-4.421,0 -8.01,-3.592 -8.01,-8.017l0,-0.051c0,-1.416 1.151,-2.565 2.563,-2.565c1.413,0 2.563,1.149 2.563,2.565c0,0.041 -0.003,0.081 -0.003,0.122c0.052,1.578 1.327,2.82 2.887,2.82c1.595,0 2.89,-1.295 2.89,-2.891l0,-27.608l5.12,0Z" style="fill:#f97d6a;"/><path d="M98.199,104.593c0,1.596 1.294,2.891 2.886,2.891c1.564,0 2.839,-1.242 2.89,-2.82c-0.003,-0.041 -0.003,-0.081 -0.003,-0.122c0,-1.416 1.147,-2.565 2.563,-2.565c1.413,0 2.56,1.149 2.56,2.565l0,0.051c0,4.425 -3.588,8.017 -8.01,8.017c-4.418,0 -8.009,-3.592 -8.009,-8.017l0,-27.608l5.123,0l0,27.608Z" style="fill:#f97d6a;"/><path d="M70.656,50.745c0,-12.213 8.614,-22.128 19.223,-22.128l0.125,0c10.552,0.077 19.098,9.963 19.098,22.128l0,34.636c-16.011,4.133 -29.25,4.099 -38.446,0l0,-34.636Z" style="fill:#f97d6a;"/><path d="M85.067,29.317c1.531,-0.456 3.147,-0.7 4.812,-0.7l0.125,0c10.552,0.077 19.098,9.963 19.098,22.128l0,34.636c-3.331,0.86 -6.542,1.54 -9.617,2.029l0,-36.665c0,-10.301 -6.127,-18.967 -14.418,-21.428Z" style="fill:#fb6b53;"/><rect id="antifaz" x="70.656" y="52.349" width="38.446" height="6.735" style="fill:#666;"/><rect x="99.491" y="52.349" width="9.617" height="6.735" style="fill:#5b5b5b;"/><ellipse id="ull-esquerra" serif:id="ull esquerra" cx="96.447" cy="55.716" rx="1.442" ry="1.443" style="fill:#fff;"/><ellipse id="ull-dret" serif:id="ull dret" cx="102.855" cy="55.716" rx="1.442" ry="1.443" style="fill:#fff;"/></g></svg>