<?xml version="1.0" encoding="UTF-8" standalone="no"?>
<!DOCTYPE svg PUBLIC "-//W3C//DTD SVG 1.1//EN" "http://www.w3.org/Graphics/SVG/1.1/DTD/svg11.dtd">
<svg width="100%" height="100%" viewBox="0 0 16 16" version="1.1" xmlns="http://www.w3.org/2000/svg" xmlns:xlink="http://www.w3.org/1999/xlink" xml:space="preserve" xmlns:serif="http://www.serif.com/" style="fill-rule:evenodd;clip-rule:evenodd;stroke-linejoin:round;stroke-miterlimit:1.41421;">
    <path id="surface1" d="M7.5,1C3.918,1 1,3.918 1,7.5C1,11.082 3.918,14 7.5,14C11.082,14 14,11.082 14,7.5C14,3.918 11.082,1 7.5,1ZM7.5,2C10.543,2 13,4.457 13,7.5C13,10.543 10.543,13 7.5,13C4.457,13 2,10.543 2,7.5C2,4.457 4.457,2 7.5,2ZM7,4L7,5L8,5L8,4L7,4ZM7,6L7,11L8,11L8,6L7,6Z" style="fill:rgb(87,87,87);fill-rule:nonzero;"/>
</svg>
