<?xml version="1.0" encoding="UTF-8"?>
<svg xmlns="http://www.w3.org/2000/svg" xmlns:xlink="http://www.w3.org/1999/xlink" viewBox="0 0 48 48" version="1.1">
<g id="surface1">
<path style=" fill:#CFD8DC;" d="M 39 6 L 9 6 C 7.34375 6 6 7.34375 6 9 L 6 42 L 14.554688 34 L 39 34 C 40.65625 34 42 32.65625 42 31 L 42 9 C 42 7.34375 40.65625 6 39 6 Z "/>
<path style=" fill:#2196F3;" d="M 20 6 L 9 6 C 7.34375 6 6 7.34375 6 9 L 6 42 L 14.554688 34 L 27 34 Z "/>
<path style=" fill:#546E7A;" d="M 28.0625 24.222656 C 28.125 24.191406 33.058594 21.003906 36 15.109375 L 37.789063 16 C 34.707031 22.25 30.332031 25.292969 29.28125 26 Z "/>
<path style=" fill:#546E7A;" d="M 37 26 C 37 26 32 23.417969 29.230469 19.003906 L 31 18 C 33.332031 21.832031 37.980469 24.261719 37.980469 24.261719 Z "/>
<path style=" fill:#546E7A;" d="M 27 15 L 39 15 L 39 17 L 27 17 Z "/>
<path style=" fill:#546E7A;" d="M 32 13 L 34 13 L 34 17 L 32 17 Z "/>
<path style=" fill:#FFFFFF;" d="M 12 22 L 18 22 L 18 24 L 12 24 Z "/>
<path style=" fill:#FFFFFF;" d="M 12.109375 26 L 15 17 L 17.90625 26 L 20.015625 26 L 16 14 L 14 14 L 10 26 Z "/>
</g>
</svg>
