<?xml version="1.0" encoding="UTF-8" standalone="no"?>
<!DOCTYPE svg PUBLIC "-//W3C//DTD SVG 1.1//EN" "http://www.w3.org/Graphics/SVG/1.1/DTD/svg11.dtd">
<svg width="100%" height="100%" viewBox="0 0 16 16" version="1.1" xmlns="http://www.w3.org/2000/svg" xmlns:xlink="http://www.w3.org/1999/xlink" xml:space="preserve" xmlns:serif="http://www.serif.com/" style="fill-rule:evenodd;clip-rule:evenodd;stroke-linejoin:round;stroke-miterlimit:1.41421;">
    <path d="M2.5,2C1.677,2 1,2.677 1,3.5L1,11.5C1,12.323 1.677,13 2.5,13L5,13L5,12L2.5,12C2.219,12 2,11.781 2,11.5L2,5L14,5L14,10L15,10L15,3.5C15,2.677 14.323,2 13.5,2L2.5,2ZM2.5,3L13.5,3C13.781,3 14,3.219 14,3.5L14,4L2,4L2,3.5C2,3.219 2.219,3 2.5,3ZM4,7L4,8L5,8L5,7L4,7ZM6,7L6,8L12,8L12,7L6,7ZM4,9L4,10L5,10L5,9L4,9ZM6,9L6,10L9,10L9,9L6,9ZM11,10C8.148,10 6.57,12.746 6.57,12.746L6.414,13.008L6.576,13.266C6.576,13.266 8.221,16 11,16C13.779,16 15.424,13.266 15.424,13.266L15.586,13.008L15.43,12.746C15.43,12.746 13.852,10 11,10ZM11,11C12.938,11 14.073,12.587 14.348,12.994C14.058,13.401 12.855,15 11,15C9.145,15 7.942,13.401 7.652,12.994C7.927,12.587 9.062,11 11,11ZM11,12C10.451,12 10,12.451 10,13C10,13.549 10.451,14 11,14C11.549,14 12,13.549 12,13C12,12.451 11.549,12 11,12Z" style="fill:rgb(87,87,87);fill-rule:nonzero;"/>
</svg>
