<?xml version="1.0"?>
<svg xmlns="http://www.w3.org/2000/svg" viewBox="0 0 16 16">
    <path style="line-height:normal;text-indent:0;text-align:start;text-decoration-line:none;text-decoration-style:solid;text-decoration-color:#000;text-transform:none;block-progression:tb;isolation:auto;mix-blend-mode:normal" d="M 2.5 2 C 1.6774686 2 1 2.6774686 1 3.5 L 1 11.5 C 1 12.322531 1.6774686 13 2.5 13 L 5 13 L 5 12 L 2.5 12 C 2.2185314 12 2 11.781469 2 11.5 L 2 5 L 14 5 L 14 10 L 15 10 L 15 3.5 C 15 2.6774686 14.322531 2 13.5 2 L 2.5 2 z M 2.5 3 L 13.5 3 C 13.781469 3 14 3.2185314 14 3.5 L 14 4 L 2 4 L 2 3.5 C 2 3.2185314 2.2185314 3 2.5 3 z M 4 7 L 4 8 L 5 8 L 5 7 L 4 7 z M 6 7 L 6 8 L 12 8 L 12 7 L 6 7 z M 4 9 L 4 10 L 5 10 L 5 9 L 4 9 z M 6 9 L 6 10 L 9 10 L 9 9 L 6 9 z M 11 10 C 8.1484433 10 6.5703125 12.746094 6.5703125 12.746094 L 6.4140625 13.007812 L 6.5761719 13.265625 C 6.5761719 13.265625 8.2210495 16 11 16 C 13.77895 16 15.423828 13.265625 15.423828 13.265625 L 15.585938 13.007812 L 15.429688 12.746094 C 15.429688 12.746094 13.851557 10 11 10 z M 11 11 C 12.937868 11 14.072943 12.587192 14.347656 12.994141 C 14.057654 13.400549 12.855411 15 11 15 C 9.1445885 15 7.9423458 13.400549 7.6523438 12.994141 C 7.9270566 12.587192 9.0621316 11 11 11 z M 11 12 A 1 1 0 0 0 10 13 A 1 1 0 0 0 11 14 A 1 1 0 0 0 12 13 A 1 1 0 0 0 11 12 z"/>
</svg>
