<?xml version="1.0" encoding="UTF-8" standalone="no"?>
<!DOCTYPE svg PUBLIC "-//W3C//DTD SVG 1.1//EN" "http://www.w3.org/Graphics/SVG/1.1/DTD/svg11.dtd">
<svg width="100%" height="100%" viewBox="0 0 16 16" version="1.1" xmlns="http://www.w3.org/2000/svg" xmlns:xlink="http://www.w3.org/1999/xlink" xml:space="preserve" xmlns:serif="http://www.serif.com/" style="fill-rule:evenodd;clip-rule:evenodd;stroke-linejoin:round;stroke-miterlimit:1.41421;">
    <path id="surface1" d="M7.5,1C6.852,1 6.301,1.422 6.094,2L3.5,2C2.676,2 2,2.676 2,3.5L2,12.5C2,13.324 2.676,14 3.5,14L7,14L7,14.004C7,14.555 7.445,15 7.992,15L13.004,15C13.555,15 14,14.555 14,14.004L14,7.992C14,7.445 13.555,7 13.004,7L13,7L13,3.5C13,2.676 12.324,2 11.5,2L8.906,2C8.699,1.422 8.148,1 7.5,1ZM7.5,2C7.781,2 8,2.219 8,2.5L8,3L9,3L9,4L6,4L6,3L7,3L7,2.5C7,2.219 7.219,2 7.5,2ZM3.5,3L5,3L5,5L10,5L10,3L11.5,3C11.781,3 12,3.219 12,3.5L12,7L7.992,7C7.445,7 7,7.445 7,7.992L7,13L3.5,13C3.219,13 3,12.781 3,12.5L3,3.5C3,3.219 3.219,3 3.5,3ZM7.992,8L13,8L13.004,14L8,14.004L7.992,8Z" style="fill:rgb(87,87,87);fill-rule:nonzero;"/>
</svg>
