<?xml version="1.0" encoding="UTF-8"?>
<svg xmlns="http://www.w3.org/2000/svg" xmlns:xlink="http://www.w3.org/1999/xlink" viewBox="0 0 16 16" version="1.1">
<g id="surface1">
<path style=" " d="M 7.5 1 C 6.851563 1 6.300781 1.421875 6.09375 2 L 3.5 2 C 2.675781 2 2 2.675781 2 3.5 L 2 12.5 C 2 13.324219 2.675781 14 3.5 14 L 7 14 L 7 14.003906 C 7 14.554688 7.445313 15 7.992188 15 L 13.003906 15 C 13.554688 15 14 14.554688 14 14.003906 L 14 7.992188 C 14 7.445313 13.554688 7 13.003906 7 L 13 7 L 13 3.5 C 13 2.675781 12.324219 2 11.5 2 L 8.90625 2 C 8.699219 1.421875 8.148438 1 7.5 1 Z M 7.5 2 C 7.78125 2 8 2.21875 8 2.5 L 8 3 L 9 3 L 9 4 L 6 4 L 6 3 L 7 3 L 7 2.5 C 7 2.21875 7.21875 2 7.5 2 Z M 3.5 3 L 5 3 L 5 5 L 10 5 L 10 3 L 11.5 3 C 11.78125 3 12 3.21875 12 3.5 L 12 7 L 7.992188 7 C 7.445313 7 7 7.445313 7 7.992188 L 7 13 L 3.5 13 C 3.21875 13 3 12.78125 3 12.5 L 3 3.5 C 3 3.21875 3.21875 3 3.5 3 Z M 7.992188 8 L 13 8 L 13.003906 14 L 8 14.003906 Z "/>
</g>
</svg>
