<?xml version="1.0" encoding="UTF-8"?>
<svg xmlns="http://www.w3.org/2000/svg" xmlns:xlink="http://www.w3.org/1999/xlink" viewBox="0 0 16 16" version="1.1">
<g id="surface1">
<path style=" " d="M 12 2.003906 C 11.488281 2.003906 10.972656 2.195313 10.585938 2.585938 L 10.582031 2.585938 L 3.0625 10.234375 L 1.710938 14.292969 L 5.765625 12.9375 L 5.851563 12.855469 L 13.414063 5.414063 C 14.191406 4.636719 14.191406 3.363281 13.414063 2.585938 C 13.027344 2.199219 12.511719 2.003906 12 2.003906 Z M 12 3 C 12.253906 3 12.507813 3.09375 12.707031 3.292969 C 13.101563 3.6875 13.101563 4.3125 12.707031 4.707031 L 11.917969 5.484375 C 11.808594 5.214844 11.632813 4.925781 11.355469 4.648438 C 11.074219 4.367188 10.785156 4.195313 10.515625 4.085938 L 11.296875 3.289063 C 11.492188 3.097656 11.746094 2.996094 12 3 Z M 9.855469 4.929688 C 10.039063 4.945313 10.308594 5.015625 10.644531 5.351563 C 10.984375 5.691406 11.054688 5.960938 11.074219 6.144531 C 11.085938 6.285156 11.066406 6.304688 11.058594 6.328125 L 5.890625 11.410156 C 5.78125 11.164063 5.609375 10.902344 5.351563 10.644531 C 5.097656 10.390625 4.835938 10.21875 4.585938 10.109375 L 9.671875 4.945313 C 9.695313 4.933594 9.714844 4.917969 9.855469 4.929688 Z M 3.898438 10.9375 C 4.054688 10.949219 4.304688 11.011719 4.648438 11.355469 C 4.988281 11.695313 5.050781 11.945313 5.0625 12.097656 C 5.0625 12.117188 5.058594 12.105469 5.0625 12.121094 L 4.109375 12.4375 C 4.03125 12.339844 3.949219 12.242188 3.851563 12.144531 C 3.757813 12.050781 3.660156 11.96875 3.5625 11.894531 L 3.882813 10.9375 C 3.894531 10.941406 3.882813 10.9375 3.898438 10.9375 Z "/>
</g>
</svg>
