<?xml version="1.0" encoding="UTF-8" standalone="no"?>
<!DOCTYPE svg PUBLIC "-//W3C//DTD SVG 1.1//EN" "http://www.w3.org/Graphics/SVG/1.1/DTD/svg11.dtd">
<svg width="100%" height="100%" viewBox="0 0 16 16" version="1.1" xmlns="http://www.w3.org/2000/svg" xmlns:xlink="http://www.w3.org/1999/xlink" xml:space="preserve" xmlns:serif="http://www.serif.com/" style="fill-rule:evenodd;clip-rule:evenodd;stroke-linejoin:round;stroke-miterlimit:1.41421;">
    <path id="surface1" d="M12,2.004C11.488,2.004 10.973,2.195 10.586,2.586L10.582,2.586L3.063,10.234L1.711,14.293L5.766,12.938L5.852,12.855L13.414,5.414C14.191,4.637 14.191,3.363 13.414,2.586C13.027,2.199 12.512,2.004 12,2.004ZM12,3C12.254,3 12.508,3.094 12.707,3.293C13.102,3.688 13.102,4.313 12.707,4.707L11.918,5.484C11.809,5.215 11.633,4.926 11.355,4.648C11.074,4.367 10.785,4.195 10.516,4.086L11.297,3.289C11.492,3.098 11.746,2.996 12,3ZM9.855,4.93C10.039,4.945 10.309,5.016 10.645,5.352C10.984,5.691 11.055,5.961 11.074,6.145C11.086,6.285 11.066,6.305 11.059,6.328L5.891,11.41C5.781,11.164 5.609,10.902 5.352,10.645C5.098,10.391 4.836,10.219 4.586,10.109L9.672,4.945C9.695,4.934 9.715,4.918 9.855,4.93ZM3.898,10.938C4.055,10.949 4.305,11.012 4.648,11.355C4.988,11.695 5.051,11.945 5.063,12.098C5.063,12.117 5.059,12.105 5.063,12.121L4.109,12.438C4.031,12.34 3.949,12.242 3.852,12.145C3.758,12.051 3.66,11.969 3.563,11.895L3.883,10.938C3.895,10.941 3.883,10.938 3.898,10.938Z" style="fill:rgb(87,87,87);fill-rule:nonzero;"/>
</svg>
