<?xml version="1.0" encoding="iso-8859-1"?>
<!-- Generator: Adobe Illustrator 22.0.1, SVG Export Plug-In . SVG Version: 6.00 Build 0)  -->
<svg xmlns="http://www.w3.org/2000/svg" xmlns:xlink="http://www.w3.org/1999/xlink" version="1.1" id="Layer_1" x="0px" y="0px" viewBox="0 0 48 48" style="enable-background:new 0 0 48 48;" xml:space="preserve">
<path style="fill:none;stroke:#CFD8DC;stroke-width:2;stroke-miterlimit:10;" d="M18,37h-1c-2.761,0-5-2.239-5-5v-7"/>
<circle style="fill:#BBDEFB;" cx="29.5" cy="12.5" r="8.5"/>
<circle style="fill:#BBDEFB;" cx="37" cy="20.893" r="7"/>
<circle style="fill:#BBDEFB;" cx="11" cy="21" r="7"/>
<circle style="fill:#BBDEFB;" cx="17.5" cy="13.5" r="6.5"/>
<circle style="fill:#BBDEFB;" cx="25" cy="18.893" r="7"/>
<path style="fill:#BBDEFB;" d="M7,24c0,2.208,1.791,4,4,4h25c2.209,0,4-1.792,4-4v-1c0-2.209-1.791-4-4-4H11c-2.209,0-4,1.791-4,4  V24z"/>
<g>
	<polygon style="fill:#FFC107;" points="28,35 37,35 37,33 28,33  "/>
	<polygon style="fill:#FFC107;" points="28,41 37,41 37,39 28,39  "/>
</g>
<polygon style="fill:#90A4AE;" points="29,32 25,32 22,35 22,39 25,42 29,42 "/>
<polygon style="fill:#546E7A;" points="22,35 18,35 18,39 22,39 "/>
<polygon style="fill:#546E7A;" points="32,44 28,44 28,30 32,30 "/>
</svg>
