<?xml version="1.0" encoding="UTF-8" standalone="no"?>
<!DOCTYPE svg PUBLIC "-//W3C//DTD SVG 1.1//EN" "http://www.w3.org/Graphics/SVG/1.1/DTD/svg11.dtd">
<svg width="100%" height="100%" viewBox="0 0 16 16" version="1.1" xmlns="http://www.w3.org/2000/svg" xmlns:xlink="http://www.w3.org/1999/xlink" xml:space="preserve" xmlns:serif="http://www.serif.com/" style="fill-rule:evenodd;clip-rule:evenodd;stroke-linejoin:round;stroke-miterlimit:1.41421;">
    <path d="M7.492,0.992C7.221,0.996 7,1.221 7,1.492C7,1.495 7,1.497 7,1.5L7,5C6.086,3.255 5.014,1.936 5.014,1.936C4.92,1.816 4.776,1.745 4.623,1.744C4.622,1.744 4.621,1.744 4.62,1.744C4.346,1.744 4.12,1.97 4.12,2.244C4.12,2.361 4.161,2.475 4.236,2.564C4.236,2.564 5.344,3.958 6.217,5.67C5.354,4.968 4.207,4.137 2.855,3.432C2.782,3.392 2.7,3.371 2.617,3.371C2.343,3.372 2.118,3.597 2.118,3.871C2.118,4.06 2.225,4.234 2.395,4.318C3.697,4.998 4.762,5.798 5.586,6.473C4.531,6.238 3.212,6 1.625,6C1.623,6 1.62,6 1.618,6C1.344,6 1.118,6.226 1.118,6.5C1.118,6.774 1.344,7 1.618,7C1.62,7 1.623,7 1.625,7C4.68,7 6.902,7.811 7.199,7.924C7.269,7.975 7.351,8.008 7.438,8.018C7.45,8.019 7.462,8.021 7.475,8.021C7.482,8.022 7.49,8.022 7.498,8.021C7.514,8.022 7.531,8.021 7.547,8.02C7.639,8.012 7.727,7.979 7.801,7.924C8.098,7.811 10.32,7 13.375,7C13.377,7 13.38,7 13.382,7C13.656,7 13.882,6.774 13.882,6.5C13.882,6.226 13.656,6 13.382,6C13.38,6 13.377,6 13.375,6C11.788,6 10.469,6.238 9.414,6.473C10.238,5.798 11.303,4.998 12.605,4.318C12.775,4.234 12.882,4.06 12.882,3.871C12.882,3.597 12.656,3.371 12.382,3.371C12.378,3.371 12.373,3.371 12.369,3.371C12.291,3.373 12.214,3.394 12.145,3.432C10.793,4.137 9.646,4.968 8.783,5.67C9.656,3.958 10.764,2.564 10.764,2.564C10.839,2.475 10.88,2.361 10.88,2.244C10.88,1.97 10.654,1.744 10.38,1.744C10.374,1.744 10.368,1.744 10.361,1.744C10.214,1.75 10.077,1.82 9.986,1.936C9.986,1.936 8.914,3.255 8,5L8,1.5C8,1.497 8,1.495 8,1.492C8,1.218 7.774,0.992 7.5,0.992C7.497,0.992 7.495,0.992 7.492,0.992ZM7,9L7,14L8,14L8,9L7,9Z" style="fill:rgb(87,87,87);fill-rule:nonzero;"/>
</svg>
