<?xml version="1.0" encoding="UTF-8" standalone="no"?>
<!DOCTYPE svg PUBLIC "-//W3C//DTD SVG 1.1//EN" "http://www.w3.org/Graphics/SVG/1.1/DTD/svg11.dtd">
<svg width="100%" height="100%" viewBox="0 0 16 16" version="1.1" xmlns="http://www.w3.org/2000/svg" xmlns:xlink="http://www.w3.org/1999/xlink" xml:space="preserve" xmlns:serif="http://www.serif.com/" style="fill-rule:evenodd;clip-rule:evenodd;stroke-linejoin:round;stroke-miterlimit:1.41421;">
    <path d="M8,1L8,7L6.5,7C5.125,7 4,8.125 4,9.5L4,10.465C4,10.477 4,10.488 4,10.5C4,12.867 3.084,14.223 3.084,14.223C3.026,14.306 2.996,14.405 2.996,14.507C2.996,14.781 3.221,15.007 3.496,15.007C3.665,15.007 3.824,14.92 3.916,14.777C3.916,14.777 4.849,13.333 4.975,11L5.977,11C5.86,13.05 5.084,14.223 5.084,14.223C5.026,14.306 4.996,14.405 4.996,14.507C4.996,14.781 5.221,15.007 5.496,15.007C5.665,15.007 5.824,14.92 5.916,14.777C5.916,14.777 6.849,13.333 6.975,11L7.977,11C7.86,13.05 7.084,14.223 7.084,14.223C7.026,14.306 6.996,14.405 6.996,14.507C6.996,14.781 7.221,15.007 7.496,15.007C7.665,15.007 7.824,14.92 7.916,14.777C7.916,14.777 8.849,13.333 8.975,11L9.977,11C9.86,13.05 9.084,14.223 9.084,14.223C9.026,14.306 8.996,14.405 8.996,14.507C8.996,14.781 9.221,15.007 9.496,15.007C9.665,15.007 9.824,14.92 9.916,14.777C9.916,14.777 10.849,13.333 10.975,11L11.979,11C11.928,12.099 11.732,12.891 11.535,13.396C11.308,13.978 11.127,14.168 11.127,14.168C11.035,14.261 10.983,14.388 10.983,14.519C10.983,14.793 11.209,15.019 11.483,15.019C11.635,15.019 11.778,14.95 11.873,14.832C11.873,14.832 12.192,14.459 12.465,13.76C12.736,13.066 12.994,12.011 12.998,10.535C12.999,10.523 13,10.512 13,10.5L13,9.5C13,8.125 11.875,7 10.5,7L9,7L9,1L8,1ZM6.5,8L10.5,8C11.335,8 12,8.665 12,9.5L12,10L10.592,10C10.559,9.994 10.526,9.991 10.492,9.992C10.467,9.993 10.442,9.996 10.418,10L8.592,10C8.559,9.994 8.526,9.991 8.492,9.992C8.467,9.993 8.442,9.996 8.418,10L6.592,10C6.559,9.994 6.526,9.991 6.492,9.992C6.467,9.993 6.442,9.996 6.418,10L5,10L5,9.5C5,8.665 5.665,8 6.5,8Z" style="fill:rgb(87,87,87);fill-rule:nonzero;"/>
</svg>
