<?xml version="1.0" encoding="UTF-8" standalone="no"?>
<!DOCTYPE svg PUBLIC "-//W3C//DTD SVG 1.1//EN" "http://www.w3.org/Graphics/SVG/1.1/DTD/svg11.dtd">
<svg width="100%" height="100%" viewBox="0 0 16 16" version="1.1" xmlns="http://www.w3.org/2000/svg" xmlns:xlink="http://www.w3.org/1999/xlink" xml:space="preserve" xmlns:serif="http://www.serif.com/" style="fill-rule:evenodd;clip-rule:evenodd;stroke-linejoin:round;stroke-miterlimit:1.41421;">
    <path id="surface1" d="M3.5,2C2.676,2 2,2.676 2,3.5L2,12.5C2,13.324 2.676,14 3.5,14L12.5,14C13.324,14 14,13.324 14,12.5L14,3.5C14,2.676 13.324,2 12.5,2L3.5,2ZM3.5,3L12.5,3C12.781,3 13,3.219 13,3.5L13,12.5C13,12.781 12.781,13 12.5,13L3.5,13C3.219,13 3,12.781 3,12.5L3,3.5C3,3.219 3.219,3 3.5,3ZM8,4C7.453,4 7,4.453 7,5L7,7L5,7C4.449,7 4,7.449 4,8L4,12L9,12L9,9L12,9L12,5C12,4.453 11.547,4 11,4L8,4ZM8,6L11,6L11,8L8,8L8,6ZM5,9L8,9L8,11L5,11L5,9Z" style="fill:rgb(87,87,87);fill-rule:nonzero;"/>
</svg>
