<?xml version="1.0" encoding="UTF-8" standalone="no"?>
<!DOCTYPE svg PUBLIC "-//W3C//DTD SVG 1.1//EN" "http://www.w3.org/Graphics/SVG/1.1/DTD/svg11.dtd">
<svg width="100%" height="100%" viewBox="0 0 16 16" version="1.1" xmlns="http://www.w3.org/2000/svg" xmlns:xlink="http://www.w3.org/1999/xlink" xml:space="preserve" xmlns:serif="http://www.serif.com/" style="fill-rule:evenodd;clip-rule:evenodd;stroke-linejoin:round;stroke-miterlimit:1.41421;">
    <path d="M2.5,2C1.677,2 1,2.677 1,3.5L1,11.5C1,12.323 1.677,13 2.5,13L8,13L8,12L2.5,12C2.219,12 2,11.781 2,11.5L2,5L14,5L14,7L15,7L15,3.5C15,2.677 14.323,2 13.5,2L2.5,2ZM2.5,3L13.5,3C13.781,3 14,3.219 14,3.5L14,4L2,4L2,3.5C2,3.219 2.219,3 2.5,3ZM4,7L4,8L5,8L5,7L4,7ZM6,7L6,8L11,8L11,7L6,7ZM13,8C11.349,8 10,9.349 10,11C10,11.646 10.21,12.242 10.561,12.732L8.021,15.271L8.729,15.979L11.268,13.439C11.758,13.79 12.354,14 13,14C14.651,14 16,12.651 16,11C16,9.349 14.651,8 13,8ZM4,9L4,10L5,10L5,9L4,9ZM6,9L6,10L9,10L9,9L6,9ZM13,9C14.11,9 15,9.89 15,11C15,12.11 14.11,13 13,13C11.89,13 11,12.11 11,11C11,9.89 11.89,9 13,9Z" style="fill:rgb(87,87,87);fill-rule:nonzero;"/>
</svg>
