<?xml version="1.0"?>
<svg xmlns="http://www.w3.org/2000/svg" viewBox="0 0 16 16">
    <path style="line-height:normal;text-indent:0;text-align:start;text-decoration-line:none;text-decoration-style:solid;text-decoration-color:#000;text-transform:none;block-progression:tb;isolation:auto;mix-blend-mode:normal" d="M 2.5 2 C 1.6774686 2 1 2.6774686 1 3.5 L 1 11.5 C 1 12.322531 1.6774686 13 2.5 13 L 8 13 L 8 12 L 2.5 12 C 2.2185314 12 2 11.781469 2 11.5 L 2 5 L 14 5 L 14 7 L 15 7 L 15 3.5 C 15 2.6774686 14.322531 2 13.5 2 L 2.5 2 z M 2.5 3 L 13.5 3 C 13.781469 3 14 3.2185314 14 3.5 L 14 4 L 2 4 L 2 3.5 C 2 3.2185314 2.2185314 3 2.5 3 z M 4 7 L 4 8 L 5 8 L 5 7 L 4 7 z M 6 7 L 6 8 L 11 8 L 11 7 L 6 7 z M 13 8 C 11.349068 8 10 9.3490681 10 11 C 10 11.645926 10.210245 12.24163 10.560547 12.732422 L 8.0214844 15.271484 L 8.7285156 15.978516 L 11.267578 13.439453 C 11.75837 13.789755 12.354074 14 13 14 C 14.650932 14 16 12.650932 16 11 C 16 9.3490681 14.650932 8 13 8 z M 4 9 L 4 10 L 5 10 L 5 9 L 4 9 z M 6 9 L 6 10 L 9 10 L 9 9 L 6 9 z M 13 9 C 14.110492 9 15 9.8895082 15 11 C 15 12.110492 14.110492 13 13 13 C 11.889508 13 11 12.110492 11 11 C 11 9.8895082 11.889508 9 13 9 z"/>
</svg>
