<?xml version="1.0" encoding="UTF-8" standalone="no"?>
<!DOCTYPE svg PUBLIC "-//W3C//DTD SVG 1.1//EN" "http://www.w3.org/Graphics/SVG/1.1/DTD/svg11.dtd">
<svg width="100%" height="100%" viewBox="0 0 16 16" version="1.1" xmlns="http://www.w3.org/2000/svg" xmlns:xlink="http://www.w3.org/1999/xlink" xml:space="preserve" xmlns:serif="http://www.serif.com/" style="fill-rule:evenodd;clip-rule:evenodd;stroke-linejoin:round;stroke-miterlimit:1.41421;">
    <path d="M2.5,2C1.677,2 1,2.677 1,3.5L1,12.5C1,13.323 1.677,14 2.5,14L13.5,14C14.323,14 15,13.323 15,12.5L15,5.5C15,4.677 14.323,4 13.5,4L6.799,4L6.145,2.787C5.884,2.303 5.375,2 4.824,2L2.5,2ZM2.5,3L4.824,3C5.009,3 5.177,3.1 5.264,3.262L6.201,5L13.5,5C13.781,5 14,5.219 14,5.5L14,6L4.5,6C3.673,6 3,6.673 3,7.5L3,10.416L2.18,12.879C2.071,12.788 2,12.656 2,12.5L2,6.5L2,5.5L2,4.5L2,3.5C2,3.219 2.219,3 2.5,3ZM5.221,8L14,8L14,12.5C14,12.781 13.781,13 13.5,13L3.193,13L4.746,8.342C4.815,8.136 5.004,8 5.221,8Z" style="fill:rgb(87,87,87);fill-rule:nonzero;"/>
</svg>
