<?xml version="1.0"?>
<svg xmlns="http://www.w3.org/2000/svg" viewBox="0 0 16 16">
    <path style="line-height:normal;text-indent:0;text-align:start;text-decoration-line:none;text-decoration-style:solid;text-decoration-color:#000;text-transform:none;block-progression:tb;isolation:auto;mix-blend-mode:normal" d="M 2.5 2 C 1.6774686 2 1 2.6774686 1 3.5 L 1 4.5 L 1 5.5 L 1 6.5 L 1 12.5 C 1 13.322531 1.6774686 14 2.5 14 L 13.5 14 C 14.322531 14 15 13.322531 15 12.5 L 15 5.5 C 15 4.6774686 14.322531 4 13.5 4 L 6.7988281 4 L 6.1445312 2.7871094 C 5.8835911 2.3027204 5.3751898 2 4.8242188 2 L 2.5 2 z M 2.5 3 L 4.8242188 3 C 5.0092476 3 5.176612 3.1001077 5.2636719 3.2617188 L 6.2011719 5 L 13.5 5 C 13.781469 5 14 5.2185314 14 5.5 L 14 6 L 4.5 6 C 3.673 6 3 6.673 3 7.5 L 3 10.416016 L 2.1796875 12.878906 C 2.071471 12.788064 2 12.656372 2 12.5 L 2 6.5 L 2 5.5 L 2 4.5 L 2 3.5 C 2 3.2185314 2.2185314 3 2.5 3 z M 5.2207031 8 L 14 8 L 14 12.5 C 14 12.781469 13.781469 13 13.5 13 L 3.1933594 13 L 4.7460938 8.3417969 C 4.8145822 8.1358275 5.0038814 8 5.2207031 8 z" font-weight="400" font-family="sans-serif" white-space="normal" overflow="visible"/>
</svg>
