<?xml version="1.0" encoding="UTF-8"?>
<svg xmlns="http://www.w3.org/2000/svg" xmlns:xlink="http://www.w3.org/1999/xlink" viewBox="0 0 48 48" version="1.1">
<g id="surface1">
<path style=" fill:#3F51B5;" d="M 38 13 C 38 13.554688 37.554688 14 37 14 L 5 14 C 4.449219 14 4 13.554688 4 13 L 4 6 C 4 5.445313 4.449219 5 5 5 L 37 5 C 37.554688 5 38 5.445313 38 6 Z "/>
<path style=" fill:#BBDEFB;" d="M 4 10 L 38 10 L 38 39 L 4 39 Z "/>
<path style=" fill:#E57373;" d="M 43.679688 25.140625 L 40.859375 22.324219 C 40.429688 21.894531 39.730469 21.894531 39.304688 22.324219 L 37.976563 23.652344 L 42.351563 28.027344 L 43.679688 26.699219 C 44.105469 26.269531 44.105469 25.570313 43.679688 25.140625 "/>
<path style=" fill:#FF9800;" d="M 23.472656 38.152344 L 35.785156 25.839844 L 40.160156 30.214844 L 27.847656 42.527344 Z "/>
<path style=" fill:#B0BEC5;" d="M 42.351563 28.027344 L 40.164063 30.214844 L 35.785156 25.839844 L 37.972656 23.652344 Z "/>
<path style=" fill:#FFC107;" d="M 23.472656 38.152344 L 22 44 L 27.847656 42.527344 Z "/>
<path style=" fill:#37474F;" d="M 22.742188 41.042969 L 22 44 L 24.957031 43.257813 Z "/>
<path style=" fill:#1976D2;" d="M 27.796875 31 L 15 31 L 15 33 L 25.796875 33 Z "/>
<path style=" fill:#1976D2;" d="M 31 27.796875 L 31 27 L 15 27 L 15 29 L 29.796875 29 Z "/>
<path style=" fill:#1976D2;" d="M 15 19 L 31 19 L 31 21 L 15 21 Z "/>
<path style=" fill:#1976D2;" d="M 15 15 L 31 15 L 31 17 L 15 17 Z "/>
<path style=" fill:#1976D2;" d="M 11 15 L 13 15 L 13 17 L 11 17 Z "/>
<path style=" fill:#1976D2;" d="M 11 19 L 13 19 L 13 21 L 11 21 Z "/>
<path style=" fill:#1976D2;" d="M 11 31 L 13 31 L 13 33 L 11 33 Z "/>
<path style=" fill:#1976D2;" d="M 15 31 L 15 33 L 22 33 C 22 32.316406 22.070313 31.648438 22.191406 31 Z "/>
<path style=" fill:#1976D2;" d="M 11 23 L 13 23 L 13 25 L 11 25 Z "/>
<path style=" fill:#1976D2;" d="M 11 27 L 13 27 L 13 29 L 11 29 Z "/>
<path style=" fill:#1976D2;" d="M 15 23 L 31 23 L 31 25 L 15 25 Z "/>
</g>
</svg>
