<?xml version="1.0" encoding="UTF-8" standalone="no"?>
<!DOCTYPE svg PUBLIC "-//W3C//DTD SVG 1.1//EN" "http://www.w3.org/Graphics/SVG/1.1/DTD/svg11.dtd">
<svg width="100%" height="100%" viewBox="0 0 70 35" version="1.1" xmlns="http://www.w3.org/2000/svg" xmlns:xlink="http://www.w3.org/1999/xlink" xml:space="preserve" xmlns:serif="http://www.serif.com/" style="fill-rule:evenodd;clip-rule:evenodd;stroke-linejoin:round;stroke-miterlimit:1.41421;">
    <g transform="matrix(0.0951087,0,0,0.09375,0,2)">
        <path d="M736,120C736,168.4 696.4,208 648,208L88,208C39.6,208 0,168.4 0,120L0,88C0,39.6 39.6,0 88,0L648,0C696.4,0 736,39.6 736,88L736,120Z" style="fill:rgb(255,153,51);fill-rule:nonzero;"/>
    </g>
    <g transform="matrix(0.0951087,0,0,0.09375,0,2)">
        <path d="M728,116C728,162.2 690.2,200 644,200L92,200C45.8,200 8,162.2 8,116L8,92C8,45.8 45.8,8 92,8L644,8C690.2,8 728,45.8 728,92L728,116Z" style="fill:url(#_Linear1);fill-rule:nonzero;"/>
    </g>
    <g transform="matrix(0.0951087,0,0,0.09375,0,2)">
        <path d="M648,120C681.6,120 710.9,100.9 725.7,73C717.1,35.9 683.7,8 644,8L92,8C52.3,8 18.9,35.9 10.3,73C25.1,100.9 54.4,120 88,120L648,120Z" style="fill:url(#_Linear2);fill-rule:nonzero;"/>
    </g>
    <g transform="matrix(0.0951087,0,0,0.09375,0,2)">
        <path d="M167.8,143.5L186.2,55.5L210,55.5C216.6,55.5 220.8,55.6 222.7,55.8C226.3,56.2 229.6,56.9 232.5,58C235.4,59.1 238,60.7 240.3,62.7C242.6,64.7 244.7,67.2 246.4,70C248.1,72.8 249.4,76.1 250.3,79.8C251.2,83.5 251.7,87.6 251.7,92C251.7,101.5 249.9,109.9 246.3,117.2C242.7,124.5 238.1,130.4 232.6,134.7C228.4,138.1 223,140.5 216.3,142.1C212.5,143 206.8,143.4 198.9,143.4L167.8,143.5ZM188.9,129.3L198.1,129.3C204.7,129.3 209.6,128.9 212.5,128.1C215.5,127.3 218.2,125.7 220.7,123.5C224.3,120.3 227.3,115.9 229.7,110.5C232.1,105.1 233.4,98.7 233.4,91.4C233.4,85.2 232.4,80.5 230.4,77.3C228.4,74.1 225.9,72.1 222.9,71C220.8,70.3 217.1,69.9 211.8,69.9L201.3,69.9C201.2,70 188.9,129.3 188.9,129.3ZM257.6,117C257.6,105.2 260.9,95.8 267.6,88.8C274.3,81.8 283,78.3 293.9,78.3C303.3,78.3 310.7,80.9 315.9,86.1C321.1,91.3 323.8,98.3 323.8,107C323.8,117.3 320.5,126.2 313.9,133.8C307.3,141.3 298.5,145.1 287.4,145.1C281.4,145.1 276.1,143.9 271.4,141.5C266.8,139.1 263.3,135.7 261,131.3C258.7,126.9 257.6,122.1 257.6,117ZM306.7,104.7C306.7,100.6 305.5,97.3 303.1,94.9C300.7,92.5 297.6,91.2 293.9,91.2C290.2,91.2 286.9,92.4 284,94.7C281.1,97 278.9,100.3 277.3,104.7C275.7,109.1 274.9,113.1 274.9,116.8C274.9,121.4 276.1,125 278.6,127.7C281.1,130.4 284.2,131.7 288,131.7C292.7,131.7 296.7,129.7 299.9,125.6C304.4,119.9 306.7,112.9 306.7,104.7ZM342.7,79.8L359,79.8L357.3,88.1C361.4,84.6 365.2,82.1 368.7,80.6C372.2,79.1 376,78.4 379.9,78.4C385.1,78.4 389.3,79.9 392.3,82.9C395.3,85.9 396.8,89.9 396.8,94.8C396.8,97 396.1,101.3 394.8,107.5L387.3,143.6L370.1,143.6L377.7,107.4C378.8,102 379.4,98.8 379.4,97.7C379.4,95.5 378.8,93.8 377.4,92.5C376.1,91.2 374.3,90.6 372,90.6C369.5,90.6 366.7,91.7 363.6,93.8C360.5,95.9 358.1,98.7 356.3,102.2C355,104.7 353.6,109.7 352,117.4L346.5,143.6L329.3,143.6C329.3,143.5 342.7,79.8 342.7,79.8ZM427.4,97.8L410.6,96.4C412.5,90.7 415.9,86.3 420.7,83.1C425.5,79.9 431.8,78.3 439.7,78.3C447.9,78.3 454,79.9 457.9,83.3C461.8,86.6 463.8,90.6 463.8,95.4C463.8,97.3 463.6,99.4 463.3,101.5C463,103.7 461.8,109.3 459.7,118.5C458,126.1 457.2,131.4 457.2,134.5C457.2,137.2 457.7,140.2 458.6,143.6L441.8,143.6C441.1,141.3 440.7,138.9 440.5,136.4C438,139.2 435.1,141.4 431.8,142.9C428.5,144.4 425.2,145.1 421.9,145.1C416.6,145.1 412.3,143.4 408.8,139.9C405.4,136.4 403.6,132 403.6,126.5C403.6,120.4 405.5,115.6 409.3,111.9C413.1,108.3 419.8,106.1 429.6,105.3C437.8,104.6 443.3,103.8 446.1,102.8C446.8,100.4 447.2,98.5 447.2,97C447.2,95.2 446.5,93.6 445,92.4C443.5,91.2 441.3,90.5 438.4,90.5C435.3,90.5 432.9,91.1 431.1,92.4C429.3,93.7 428,95.5 427.4,97.8ZM443.8,113.8C442.8,114.1 441.4,114.3 439.6,114.6C431,115.6 425.3,117.2 422.7,119.2C420.8,120.6 419.9,122.6 419.9,125C419.9,127 420.6,128.7 422.1,130.1C423.5,131.5 425.4,132.2 427.8,132.2C430.4,132.2 432.8,131.6 435.2,130.3C437.5,129 439.2,127.4 440.4,125.4C441.6,123.4 442.6,120.3 443.4,116.1C443.3,116.1 443.8,113.8 443.8,113.8ZM474.7,92.5L477.3,79.7L485.7,79.7L487.8,69.5L507.6,57.6L503,79.8L513.5,79.8L510.9,92.6L500.3,92.6L494.7,119.3C493.7,124.1 493.2,126.9 493.2,127.6C493.2,128.9 493.6,130 494.5,130.7C495.3,131.4 496.9,131.8 499.1,131.8C499.9,131.8 501.8,131.7 504.8,131.4L502.1,144.2C499.1,144.8 496.1,145.1 493,145.1C486.9,145.1 482.5,143.9 479.7,141.6C476.9,139.3 475.5,136 475.5,131.8C475.5,129.8 476.2,125.3 477.7,118.2L483,92.6C483,92.5 474.7,92.5 474.7,92.5ZM572.3,117L529.1,117C529.1,117.7 529,118.2 529,118.6C529,122.8 530.2,126.3 532.6,128.9C535,131.5 538,132.8 541.4,132.8C547.1,132.8 551.6,129.8 554.8,123.9L570.2,126.5C567.2,132.7 563.2,137.4 558.2,140.5C553.2,143.6 547.5,145.2 541.3,145.2C532.7,145.2 525.8,142.5 520.4,137.1C515,131.7 512.4,124.5 512.4,115.6C512.4,106.9 514.8,99.1 519.7,92.3C526.3,83.1 535.7,78.5 548,78.5C555.8,78.5 562,80.9 566.6,85.7C571.2,90.5 573.5,97.3 573.5,106C573.5,109.9 573.1,113.7 572.3,117ZM557.8,106.5C557.8,105.7 557.9,105.2 557.9,104.8C557.9,100.1 556.8,96.5 554.7,94.2C552.6,91.8 549.7,90.7 546.2,90.7C542.7,90.7 539.4,92 536.6,94.7C533.8,97.4 531.9,101.3 530.9,106.6L557.8,106.5Z" style="fill:rgb(0,51,102);fill-rule:nonzero;"/>
    </g>
    <g id="surface1" transform="matrix(0.347222,0,0,0.347222,17.9948,18.6667)">
        <g transform="matrix(1.06,0,0,1.06,-37.7558,-2.52)">
            <path d="M18.699,13.766L18.703,13.77C18.809,13.324 19.188,13 19.66,13L33.133,13C33.148,13 33.164,12.992 33.184,12.992C32.895,8.215 28.887,6 25.352,6L11.879,6C11.402,6 11.027,6.336 10.922,6.777L10.918,6.773L5.027,33.813L5.043,33.813C5.027,33.879 5.004,33.938 5.004,34.008C5.004,34.563 5.449,35 6.004,35L14.074,35L18.699,13.766Z" style="fill:rgb(21,101,192);fill-rule:nonzero;"/>
        </g>
        <g transform="matrix(1.06,0,0,1.06,-37.7558,-2.52)">
            <path d="M33.184,12.992C33.234,13.871 33.18,14.824 32.953,15.875C31.672,21.871 27.043,24.992 21.32,24.992C21.32,24.992 17.848,24.992 17.008,24.992C16.484,24.992 16.238,25.297 16.125,25.531L14.387,33.578L14.082,35.008L14.074,35.008L12.813,40.805L12.824,40.805C12.813,40.871 12.785,40.93 12.785,41C12.785,41.555 13.234,42 13.785,42L21.117,42L21.133,41.988C21.605,41.984 21.98,41.645 22.078,41.203L22.094,41.188L23.906,32.77C23.906,32.77 24.031,31.969 24.879,31.969C25.723,31.969 29.055,31.969 29.055,31.969C34.777,31.969 39.457,28.863 40.738,22.867C42.18,16.105 37.359,13.02 33.184,12.992Z" style="fill:rgb(3,155,229);fill-rule:nonzero;"/>
        </g>
        <g transform="matrix(1.06,0,0,1.06,-37.7558,-2.52)">
            <path d="M19.66,13C19.188,13 18.809,13.324 18.703,13.77L18.699,13.766L16.125,25.531C16.238,25.297 16.484,24.992 17.004,24.992C17.848,24.992 21.238,24.992 21.238,24.992C26.965,24.992 31.672,21.871 32.953,15.879C33.18,14.824 33.234,13.871 33.184,12.996C33.164,12.992 33.148,13 33.133,13L19.66,13Z" style="fill:rgb(40,53,147);fill-rule:nonzero;"/>
        </g>
        <g transform="matrix(0.403214,0,0,0.403214,-35.6408,2.39916)">
            <path d="M311.628,21.955L289.377,21.955C287.856,21.955 286.561,23.062 286.324,24.565L277.326,81.618C277.149,82.744 278.018,83.762 279.158,83.762L290.575,83.762C291.639,83.762 292.547,82.988 292.712,81.935L295.264,65.761C295.501,64.258 296.796,63.151 298.318,63.151L305.359,63.151C320.014,63.151 328.472,56.058 330.683,42.001C331.678,35.853 330.723,31.022 327.844,27.64C324.68,23.921 319.072,21.955 311.628,21.955ZM314.196,42.792C312.98,50.779 306.881,50.779 300.98,50.779L297.624,50.779L299.978,35.867C300.121,34.965 300.898,34.301 301.81,34.301L303.349,34.301C307.365,34.301 311.159,34.301 313.114,36.589C314.285,37.959 314.638,39.988 314.196,42.792Z" style="fill:rgb(3,155,229);fill-rule:nonzero;"/>
        </g>
        <g transform="matrix(0.403214,0,0,0.403214,-35.6408,2.39916)">
            <path d="M152.932,21.955L130.682,21.955C129.161,21.955 127.866,23.062 127.628,24.565L118.63,81.618C118.453,82.744 119.323,83.762 120.463,83.762L131.087,83.762C132.608,83.762 133.903,82.656 134.141,81.153L136.569,65.761C136.806,64.258 138.101,63.151 139.622,63.151L146.663,63.151C161.319,63.151 169.777,56.058 171.988,42.001C172.983,35.853 172.028,31.022 169.15,27.64C165.984,23.921 160.375,21.955 152.932,21.955ZM155.5,42.792C154.284,50.779 148.184,50.779 142.285,50.779L138.928,50.779L141.282,35.867C141.425,34.965 142.201,34.301 143.114,34.301L144.653,34.301C148.669,34.301 152.463,34.301 154.418,36.589C155.588,37.959 155.942,39.988 155.5,42.792Z" style="fill:rgb(21,101,192);fill-rule:nonzero;"/>
        </g>
        <g transform="matrix(0.403214,0,0,0.403214,-35.6408,2.39916)">
            <path d="M219.435,42.537L208.782,42.537C207.869,42.537 207.092,43.201 206.949,44.103L206.481,47.082L205.736,46.003C203.428,42.654 198.286,41.535 193.151,41.535C181.381,41.535 171.325,50.455 169.368,62.965C168.349,69.206 169.795,75.171 173.334,79.334C176.585,83.159 181.225,84.751 186.753,84.751C196.24,84.751 201.503,78.655 201.503,78.655L201.027,81.617C200.848,82.743 201.718,83.762 202.859,83.762L212.454,83.762C213.975,83.762 215.269,82.656 215.507,81.154L221.267,44.681C221.445,43.554 220.575,42.537 219.435,42.537ZM204.587,63.275C203.558,69.362 198.725,73.449 192.561,73.449C189.471,73.449 186.997,72.455 185.407,70.573C183.831,68.708 183.238,66.05 183.738,63.09C184.697,57.057 189.608,52.838 195.678,52.838C198.703,52.838 201.16,53.841 202.781,55.741C204.413,57.654 205.054,60.329 204.587,63.275Z" style="fill:rgb(21,101,192);fill-rule:nonzero;"/>
        </g>
        <g transform="matrix(0.403214,0,0,0.403214,-35.6408,2.39916)">
            <path d="M378.131,42.537L367.478,42.537C366.565,42.537 365.788,43.201 365.646,44.103L365.177,47.082L364.432,46.003C362.124,42.654 356.982,41.535 351.847,41.535C340.076,41.535 330.021,50.455 328.065,62.965C327.046,69.206 328.492,75.171 332.031,79.334C335.282,83.159 339.922,84.751 345.45,84.751C354.937,84.751 360.2,78.655 360.2,78.655L359.724,81.617C359.545,82.743 360.415,83.762 361.556,83.762L371.151,83.762C372.672,83.762 373.966,82.656 374.204,81.154L379.964,44.681C380.142,43.554 379.271,42.537 378.131,42.537ZM363.284,63.275C362.255,69.362 357.423,73.449 351.259,73.449C348.168,73.449 345.695,72.455 344.104,70.573C342.529,68.708 341.935,66.05 342.435,63.09C343.395,57.057 348.304,52.838 354.374,52.838C357.399,52.838 359.856,53.841 361.478,55.741C363.109,57.654 363.75,60.329 363.284,63.275Z" style="fill:rgb(3,155,229);fill-rule:nonzero;"/>
        </g>
        <g transform="matrix(0.403214,0,0,0.403214,-35.6408,2.39916)">
            <path d="M276.181,42.537L265.472,42.537C264.448,42.537 263.49,43.046 262.914,43.893L248.142,65.649L241.881,44.742C241.489,43.434 240.285,42.536 238.92,42.536L228.393,42.536C227.122,42.536 226.228,43.786 226.637,44.99L238.429,79.602L227.338,95.25C226.467,96.479 227.346,98.178 228.852,98.178L239.55,98.178C240.564,98.178 241.513,97.681 242.091,96.847L277.705,45.448C278.557,44.219 277.677,42.537 276.181,42.537Z" style="fill:rgb(21,101,192);fill-rule:nonzero;"/>
        </g>
        <g transform="matrix(0.403214,0,0,0.403214,-35.6408,2.39916)">
            <path d="M390.69,23.522L381.557,81.619C381.38,82.744 382.25,83.762 383.389,83.762L392.574,83.762C394.095,83.762 395.39,82.656 395.628,81.153L404.632,24.1C404.81,22.974 403.94,21.956 402.8,21.956L392.523,21.956C391.609,21.955 390.832,22.62 390.69,23.522Z" style="fill:rgb(3,155,229);fill-rule:nonzero;"/>
        </g>
    </g>
    <defs>
        <linearGradient id="_Linear1" x1="0" y1="0" x2="1" y2="0" gradientUnits="userSpaceOnUse" gradientTransform="matrix(1.17566e-14,-192,192,1.17566e-14,368,200)"><stop offset="0" style="stop-color:rgb(255,239,210);stop-opacity:1"/><stop offset="0.23" style="stop-color:rgb(255,178,60);stop-opacity:1"/><stop offset="1" style="stop-color:rgb(255,178,60);stop-opacity:1"/></linearGradient>
        <linearGradient id="_Linear2" x1="0" y1="0" x2="1" y2="0" gradientUnits="userSpaceOnUse" gradientTransform="matrix(6.85802e-15,-112,112,6.85802e-15,368,120.016)"><stop offset="0" style="stop-color:rgb(254,222,158);stop-opacity:1"/><stop offset="1" style="stop-color:white;stop-opacity:1"/></linearGradient>
    </defs>
</svg>
