<?xml version="1.0" encoding="UTF-8" standalone="no"?>
<!DOCTYPE svg PUBLIC "-//W3C//DTD SVG 1.1//EN" "http://www.w3.org/Graphics/SVG/1.1/DTD/svg11.dtd">
<svg width="100%" height="100%" viewBox="0 0 16 16" version="1.1" xmlns="http://www.w3.org/2000/svg" xmlns:xlink="http://www.w3.org/1999/xlink" xml:space="preserve" xmlns:serif="http://www.serif.com/" style="fill-rule:evenodd;clip-rule:evenodd;stroke-linejoin:round;stroke-miterlimit:1.41421;">
    <rect x="2" y="3" width="7" height="7" style="fill:white;"/>
    <rect x="7" y="6" width="7" height="7" style="fill:white;"/>
    <path id="surface1" d="M2.5,2C1.676,2 1,2.676 1,3.5L1,9.5C1,10.324 1.676,11 2.5,11L6,11L6,12.5C6,13.324 6.676,14 7.5,14L13.5,14C14.324,14 15,13.324 15,12.5L15,6.5C15,5.676 14.324,5 13.5,5L10,5L10,3.5C10,2.676 9.324,2 8.5,2L2.5,2ZM2.5,3L8.5,3C8.781,3 9,3.219 9,3.5L9,6L13.5,6C13.781,6 14,6.219 14,6.5L14,12.5C14,12.781 13.781,13 13.5,13L7.5,13C7.219,13 7,12.781 7,12.5L7,10L2.5,10C2.219,10 2,9.781 2,9.5L2,3.5C2,3.219 2.219,3 2.5,3ZM5,4L5,5L3,5L3,6L5.961,6C5.844,6.211 5.699,6.445 5.508,6.688C5.496,6.703 5.484,6.715 5.473,6.727C5.258,6.539 5.105,6.398 5.105,6.398L4.395,7.102C4.395,7.102 4.523,7.23 4.734,7.414C4.277,7.754 3.719,8 3,8L3,9C4.07,9 4.902,8.578 5.543,8.047C6.203,8.508 7.059,9 8,9L8,8C7.484,8 6.824,7.691 6.273,7.328C6.277,7.324 6.285,7.316 6.289,7.313C6.73,6.758 6.949,6.305 7.078,6L8,6L8,5L6,5L6,4L5,4ZM10.078,7L8,10.875L8,12L9,12L9,11.125L9.066,11L11.934,11L12,11.125L12,12L13,12L13,10.875L10.922,7L10.078,7ZM10.5,8.324L11.398,10L9.602,10L10.5,8.324Z" style="fill-rule:nonzero;"/>
</svg>
