<?xml version="1.0" encoding="UTF-8" standalone="no"?>
<!DOCTYPE svg PUBLIC "-//W3C//DTD SVG 1.1//EN" "http://www.w3.org/Graphics/SVG/1.1/DTD/svg11.dtd">
<svg width="100%" height="100%" viewBox="0 0 16 16" version="1.1" xmlns="http://www.w3.org/2000/svg" xmlns:xlink="http://www.w3.org/1999/xlink" xml:space="preserve" xmlns:serif="http://www.serif.com/" style="fill-rule:evenodd;clip-rule:evenodd;stroke-linejoin:round;stroke-miterlimit:1.41421;">
    <path d="M14,12L7.434,12L5,14.434L5,12L2,12L2,3L14,3L14,12Z" style="fill:white;"/>
    <path id="surface1" d="M2.5,2C1.676,2 1,2.676 1,3.5L1,11.5C1,12.324 1.676,13 2.5,13L4,13L4,15.434L7.652,13L13.5,13C14.324,13 15,12.324 15,11.5L15,3.5C15,2.676 14.324,2 13.5,2L2.5,2ZM2.5,3L13.5,3C13.781,3 14,3.219 14,3.5L14,11.5C14,11.781 13.781,12 13.5,12L7.348,12L5,13.566L5,12L2.5,12C2.219,12 2,11.781 2,11.5L2,3.5C2,3.219 2.219,3 2.5,3ZM3.5,4C3.223,4 3,4.223 3,4.5L3,9L4,9L4,8L6,8L6,9L7,9L7,5.785C7,5.641 6.938,5.5 6.828,5.406L5.328,4.121C5.234,4.043 5.121,4 5,4L3.5,4ZM4,5L4.813,5L6,6.016L6,7L4,7L4,5ZM10,6L10,7L8,7L8,8L10.875,8C10.77,8.188 10.648,8.391 10.496,8.594C10.426,8.691 10.336,8.777 10.258,8.871C9.902,8.543 9.633,8.25 9.633,8.25L8.867,8.891C8.867,8.891 9.145,9.195 9.516,9.547C9.098,9.816 8.602,10 8,10L8,11C8.934,11 9.699,10.66 10.301,10.203C10.879,10.625 11.582,11 12.375,11L12.375,10C11.973,10 11.484,9.781 11.035,9.492C11.121,9.391 11.223,9.293 11.297,9.191C11.621,8.758 11.848,8.328 12,8L13,8L13,7L11,7L11,6L10,6Z" style="fill-rule:nonzero;"/>
</svg>
