<?xml version="1.0" encoding="UTF-8" standalone="no"?>
<!DOCTYPE svg PUBLIC "-//W3C//DTD SVG 1.1//EN" "http://www.w3.org/Graphics/SVG/1.1/DTD/svg11.dtd">
<svg width="100%" height="100%" viewBox="0 0 16 16" version="1.1" xmlns="http://www.w3.org/2000/svg" xmlns:xlink="http://www.w3.org/1999/xlink" xml:space="preserve" xmlns:serif="http://www.serif.com/" style="fill-rule:evenodd;clip-rule:evenodd;stroke-linejoin:round;stroke-miterlimit:1.41421;">
    <g transform="matrix(0.0224606,0,0,0.0215007,-3.50038,-3.00834)">
        <g transform="matrix(2.84134,0,0,2.84134,-4223.56,-1870.46)">
            <path d="M1622.65,883.366L1622.65,928.45C1622.65,942.248 1611.45,953.45 1597.65,953.45C1583.86,953.45 1572.65,942.248 1572.65,928.45L1572.66,928.45C1572.65,928.398 1572.65,928.345 1572.65,928.291C1572.65,923.877 1576.24,920.293 1580.65,920.293C1585.07,920.293 1588.65,923.877 1588.65,928.291C1588.65,928.419 1588.65,928.546 1588.64,928.672C1588.8,933.592 1592.78,937.467 1597.65,937.467C1602.63,937.467 1606.67,933.427 1606.67,928.45L1606.67,883.366L1622.65,883.366Z" style="fill:rgb(249,125,106);"/>
        </g>
        <g transform="matrix(2.84134,0,0,2.84134,-4223.51,-1870.46)">
            <path d="M1726.65,905.156L1726.65,928.45C1726.65,933.427 1730.69,937.467 1735.67,937.467C1740.55,937.467 1744.52,933.592 1744.68,928.672C1744.68,928.546 1744.67,928.419 1744.67,928.291C1744.67,923.877 1748.26,920.293 1752.67,920.293C1757.09,920.293 1760.67,923.877 1760.67,928.291C1760.67,928.345 1760.67,928.398 1760.67,928.45L1760.67,928.45C1760.67,942.248 1749.47,953.45 1735.67,953.45C1721.87,953.45 1710.67,942.248 1710.67,928.45L1710.67,883.366L1726.65,883.366L1726.65,905.156Z" style="fill:rgb(249,125,106);"/>
        </g>
        <g transform="matrix(2.84134,0,0,2.84134,-4223.56,-1870.46)">
            <path d="M1656.67,858.366L1656.67,944.45C1656.67,958.248 1645.47,969.45 1631.67,969.45C1617.87,969.45 1606.67,958.248 1606.67,944.45L1606.67,944.45C1606.67,944.398 1606.67,944.345 1606.67,944.291C1606.67,939.877 1610.26,936.293 1614.67,936.293C1619.08,936.293 1622.67,939.877 1622.67,944.291C1622.67,944.419 1622.66,944.546 1622.66,944.672C1622.82,949.592 1626.8,953.467 1631.67,953.467C1636.65,953.467 1640.69,949.427 1640.69,944.45L1640.69,858.366L1656.67,858.366Z" style="fill:rgb(249,125,106);"/>
        </g>
        <g transform="matrix(2.84134,0,0,2.84134,-4223.56,-1870.46)">
            <path d="M1692.64,944.45C1692.64,949.427 1696.68,953.467 1701.65,953.467C1706.53,953.467 1710.51,949.592 1710.67,944.672C1710.66,944.546 1710.66,944.419 1710.66,944.291C1710.66,939.877 1714.24,936.293 1718.66,936.293C1723.07,936.293 1726.65,939.877 1726.65,944.291C1726.65,944.345 1726.65,944.398 1726.65,944.45L1726.65,944.45C1726.65,958.248 1715.45,969.45 1701.65,969.45C1687.86,969.45 1676.65,958.248 1676.65,944.45C1676.65,944.45 1676.65,858.366 1676.65,858.366L1692.64,858.366L1692.64,944.45Z" style="fill:rgb(249,125,106);"/>
        </g>
        <g transform="matrix(2.84134,0,0,2.84134,91.4573,-32.1511)">
            <path d="M88.017,129.559C88.017,91.477 114.902,60.559 148.017,60.559L148.405,60.561C181.341,60.801 208.017,91.625 208.017,129.559L208.017,237.559C158.042,250.447 116.719,250.339 88.017,237.559L88.017,129.559Z" style="fill:rgb(249,125,106);"/>
        </g>
    </g>
    <g id="antifaz" transform="matrix(0.0666667,0,0,0.238095,-42.5333,-103.405)">
        <rect x="698" y="449" width="120" height="21" style="fill:rgb(102,102,102);"/>
    </g>
    <g id="ull-esquerra" serif:id="ull esquerra" transform="matrix(0.333333,0,0,0.333333,-233.167,-146.833)">
        <circle cx="723.5" cy="458.5" r="4.5" style="fill:white;"/>
    </g>
    <g id="ull-dret" serif:id="ull dret" transform="matrix(0.333333,0,0,0.333333,-230.167,-146.833)">
        <circle cx="723.5" cy="458.5" r="4.5" style="fill:white;"/>
    </g>
</svg>
