<?xml version="1.0"?>
<svg xmlns="http://www.w3.org/2000/svg" viewBox="0 0 16 16">
    <path style="line-height:normal;text-indent:0;text-align:start;text-decoration-line:none;text-decoration-style:solid;text-decoration-color:#000;text-transform:none;block-progression:tb;isolation:auto;mix-blend-mode:normal" d="M 3.2578125 0.7578125 C 3.1298125 0.7578125 3.0017969 0.80679688 2.9042969 0.90429688 C 1.6762969 2.1322969 1 3.764 1 5.5 C 1 7.236 1.6762969 8.8677031 2.9042969 10.095703 C 3.0412969 10.232703 3.1840781 10.359422 3.3300781 10.482422 L 3.8007812 9.5449219 C 3.7407813 9.4899219 3.6703281 9.4466719 3.6113281 9.3886719 C 2.5723281 8.3496719 2 6.969 2 5.5 C 2 4.031 2.5723281 2.6503281 3.6113281 1.6113281 C 3.8063281 1.4163281 3.8063281 1.0992969 3.6113281 0.90429688 C 3.5138281 0.80679688 3.3858125 0.7578125 3.2578125 0.7578125 z M 11.742188 0.7578125 C 11.614188 0.7578125 11.486172 0.80679687 11.388672 0.90429688 C 11.193672 1.0992969 11.193672 1.4163281 11.388672 1.6113281 C 12.427672 2.6503281 13 4.031 13 5.5 C 13 6.969 12.427672 8.3496719 11.388672 9.3886719 C 11.329672 9.4476719 11.260219 9.4889219 11.199219 9.5449219 L 11.667969 10.484375 C 11.814969 10.361375 11.958703 10.232703 12.095703 10.095703 C 13.324703 8.8677031 14 7.236 14 5.5 C 14 3.764 13.323703 2.1322969 12.095703 0.90429688 C 11.998203 0.80679687 11.870187 0.7578125 11.742188 0.7578125 z M 4.671875 2.171875 C 4.543875 2.171875 4.4158594 2.2208594 4.3183594 2.3183594 C 3.4683594 3.1683594 3 4.298 3 5.5 C 3 6.674 3.452625 7.7741875 4.265625 8.6171875 L 4.7519531 7.6425781 C 4.2729531 7.0295781 4 6.289 4 5.5 C 4 4.565 4.3643906 3.6873906 5.0253906 3.0253906 C 5.2203906 2.8303906 5.2203906 2.5133594 5.0253906 2.3183594 C 4.9278906 2.2208594 4.799875 2.171875 4.671875 2.171875 z M 10.328125 2.171875 C 10.200125 2.171875 10.072109 2.2208594 9.9746094 2.3183594 C 9.7796094 2.5133594 9.7796094 2.8303906 9.9746094 3.0253906 C 10.635609 3.6873906 11 4.565 11 5.5 C 11 6.289 10.727047 7.0305781 10.248047 7.6425781 L 10.734375 8.6152344 C 11.547375 7.7732344 12 6.674 12 5.5 C 12 4.298 11.531641 3.1683594 10.681641 2.3183594 C 10.584141 2.2208594 10.456125 2.171875 10.328125 2.171875 z M 7.5 3.0234375 C 6.852 3.0234375 6.2039219 3.2599219 5.7324219 3.7324219 C 4.9554219 4.5094219 4.8085313 5.6714688 5.2695312 6.6054688 L 6.1582031 4.8261719 C 6.2252031 4.6921719 6.3159687 4.5766563 6.4179688 4.4726562 C 6.4269688 4.4626563 6.4294531 4.4494531 6.4394531 4.4394531 C 6.4674531 4.4114531 6.5051562 4.4019531 6.5351562 4.3769531 C 6.6251562 4.3019531 6.722125 4.2395 6.828125 4.1875 C 6.894125 4.1555 6.9563906 4.1255156 7.0253906 4.1035156 C 7.1273906 4.0715156 7.2327969 4.0559219 7.3417969 4.0449219 C 7.4487969 4.0339219 7.54925 4.0339219 7.65625 4.0449219 C 7.76525 4.0559219 7.8736094 4.0715156 7.9746094 4.1035156 C 8.0446094 4.1255156 8.105875 4.1545 8.171875 4.1875 C 8.276875 4.2385 8.3728906 4.3029531 8.4628906 4.3769531 C 8.4928906 4.4019531 8.5325469 4.4104531 8.5605469 4.4394531 C 8.5705469 4.4494531 8.5730312 4.4636094 8.5820312 4.4746094 C 8.6840313 4.5786094 8.7737969 4.6960781 8.8417969 4.8300781 L 9.7304688 6.6054688 C 10.192469 5.6704687 10.044578 4.5094219 9.2675781 3.7324219 C 8.7960781 3.2599219 8.148 3.0234375 7.5 3.0234375 z M 7.5039062 5 A 0.50005 0.50005 0 0 0 7.0527344 5.2773438 L 3.0527344 13.277344 A 0.50005 0.50005 0 1 0 3.9472656 13.722656 L 7.5 6.6171875 L 11.052734 13.722656 A 0.50005 0.50005 0 1 0 11.947266 13.277344 L 7.9472656 5.2773438 A 0.50005 0.50005 0 0 0 7.5039062 5 z M 6.4765625 10.900391 L 6.015625 11.822266 L 6.4765625 10.900391 z" font-weight="400" font-family="sans-serif" white-space="normal" overflow="visible"/>
</svg>
