<?xml version="1.0" encoding="UTF-8" standalone="no"?>
<!DOCTYPE svg PUBLIC "-//W3C//DTD SVG 1.1//EN" "http://www.w3.org/Graphics/SVG/1.1/DTD/svg11.dtd">
<svg width="100%" height="100%" viewBox="0 0 16 16" version="1.1" xmlns="http://www.w3.org/2000/svg" xmlns:xlink="http://www.w3.org/1999/xlink" xml:space="preserve" xmlns:serif="http://www.serif.com/" style="fill-rule:evenodd;clip-rule:evenodd;stroke-linejoin:round;stroke-miterlimit:1.41421;">
    <path d="M3.258,0.758C3.13,0.758 3.002,0.807 2.904,0.904C1.676,2.132 1,3.764 1,5.5C1,7.236 1.676,8.868 2.904,10.096C3.041,10.233 3.184,10.359 3.33,10.482L3.801,9.545C3.741,9.49 3.67,9.447 3.611,9.389C2.572,8.35 2,6.969 2,5.5C2,4.031 2.572,2.65 3.611,1.611C3.806,1.416 3.806,1.099 3.611,0.904C3.514,0.807 3.386,0.758 3.258,0.758ZM11.742,0.758C11.614,0.758 11.486,0.807 11.389,0.904C11.194,1.099 11.194,1.416 11.389,1.611C12.428,2.65 13,4.031 13,5.5C13,6.969 12.428,8.35 11.389,9.389C11.33,9.448 11.26,9.489 11.199,9.545L11.668,10.484C11.815,10.361 11.959,10.233 12.096,10.096C13.325,8.868 14,7.236 14,5.5C14,3.764 13.324,2.132 12.096,0.904C11.998,0.807 11.87,0.758 11.742,0.758ZM4.672,2.172C4.544,2.172 4.416,2.221 4.318,2.318C3.468,3.168 3,4.298 3,5.5C3,6.674 3.453,7.774 4.266,8.617L4.752,7.643C4.273,7.03 4,6.289 4,5.5C4,4.565 4.364,3.687 5.025,3.025C5.22,2.83 5.22,2.513 5.025,2.318C4.928,2.221 4.8,2.172 4.672,2.172ZM10.328,2.172C10.2,2.172 10.072,2.221 9.975,2.318C9.78,2.513 9.78,2.83 9.975,3.025C10.636,3.687 11,4.565 11,5.5C11,6.289 10.727,7.031 10.248,7.643L10.734,8.615C11.547,7.773 12,6.674 12,5.5C12,4.298 11.532,3.168 10.682,2.318C10.584,2.221 10.456,2.172 10.328,2.172ZM7.5,3.023C6.852,3.023 6.204,3.26 5.732,3.732C4.955,4.509 4.809,5.671 5.27,6.605L6.158,4.826C6.225,4.692 6.316,4.577 6.418,4.473C6.427,4.463 6.429,4.449 6.439,4.439C6.467,4.411 6.505,4.402 6.535,4.377C6.625,4.302 6.722,4.239 6.828,4.188C6.894,4.156 6.956,4.126 7.025,4.104C7.127,4.072 7.233,4.056 7.342,4.045C7.449,4.034 7.549,4.034 7.656,4.045C7.765,4.056 7.874,4.072 7.975,4.104C8.045,4.126 8.106,4.155 8.172,4.188C8.277,4.239 8.373,4.303 8.463,4.377C8.493,4.402 8.533,4.41 8.561,4.439C8.571,4.449 8.573,4.464 8.582,4.475C8.684,4.579 8.774,4.696 8.842,4.83L9.73,6.605C10.192,5.67 10.045,4.509 9.268,3.732C8.796,3.26 8.148,3.023 7.5,3.023ZM7.504,5C7.313,4.999 7.138,5.107 7.053,5.277L3.053,13.277C3.012,13.351 2.991,13.434 2.991,13.519C2.991,13.793 3.216,14.019 3.491,14.019C3.688,14.019 3.867,13.902 3.947,13.723L7.5,6.617L11.053,13.723C11.133,13.902 11.312,14.019 11.509,14.019C11.784,14.019 12.009,13.793 12.009,13.519C12.009,13.434 11.988,13.351 11.947,13.277L7.947,5.277C7.864,5.109 7.692,5.002 7.504,5ZM6.477,10.9L6.016,11.822L6.477,10.9Z" style="fill:rgb(87,87,87);fill-rule:nonzero;"/>
</svg>
