<?xml version="1.0" encoding="UTF-8"?>
<svg xmlns="http://www.w3.org/2000/svg" xmlns:xlink="http://www.w3.org/1999/xlink" viewBox="0 0 48 48" version="1.1">
<g id="surface1">
<path style=" fill:#78909C;" d="M 6 29 L 6 39 C 6 41.210938 7.789063 43 10 43 L 38 43 C 40.210938 43 42 41.210938 42 39 L 42 29 Z "/>
<path style=" fill:#455A64;" d="M 42 29 C 42 31.210938 40.210938 33 38 33 L 10 33 C 7.789063 33 6 31.210938 6 29 L 9 11 C 9.21875 8.90625 10.789063 7 13 7 L 35 7 C 37.210938 7 38.6875 8.75 39 11 Z "/>
<path style=" fill:#64DD17;" d="M 37 38 C 37 39.105469 36.105469 40 35 40 C 33.894531 40 33 39.105469 33 38 C 33 36.894531 33.894531 36 35 36 C 36.105469 36 37 36.894531 37 38 Z "/>
<path style=" fill:#00E5FF;" d="M 24 27.242188 L 32 19.242188 L 16 19.242188 Z "/>
<path style=" fill:#00E5FF;" d="M 21 4 L 26.996094 4 L 26.996094 20 L 21 20 Z "/>
</g>
</svg>
