<?xml version="1.0" encoding="UTF-8"?>
<svg xmlns="http://www.w3.org/2000/svg" xmlns:xlink="http://www.w3.org/1999/xlink" viewBox="0 0 48 48" version="1.1">
<g id="surface1">
<path style=" fill:#BBDEFB;" d="M 21 16 C 21 19.300781 18.199219 22 13.5 22 L 12.601563 22 C 7.898438 22 6 19.300781 6 16 C 6 12.699219 6.398438 10 13 10 L 14 10 C 20.601563 10 21 12.699219 21 16 Z M 42 16 C 42 12.699219 41.601563 10 35 10 L 34 10 C 27.398438 10 27 12.699219 27 16 C 27 19.300781 28.898438 22 33.601563 22 L 34.5 22 C 39.199219 22 42 19.300781 42 16 Z "/>
<path style=" fill:#795548;" d="M 40.601563 31 C 43.699219 31.898438 42.601563 36.398438 37.300781 34.601563 C 34.800781 33.800781 33.601563 31.101563 32.300781 29.601563 C 31.199219 28.199219 29.699219 27 27 27 C 25.800781 27 24.699219 27.5 23.898438 28.199219 C 23.101563 27.398438 22 27 20.800781 27 C 18.199219 27 16.601563 28.199219 15.5 29.601563 C 14.300781 31.101563 13 33.898438 10.5 34.601563 C 5.199219 36.398438 4.101563 31.898438 7.199219 31 C 5.199219 30.800781 4 32 4 33.800781 C 4 36.199219 5.5 39 13 39 C 17.101563 39 21.699219 37.898438 24 35.5 C 26.300781 38 30.898438 39 35 39 C 42.398438 39 44 36.300781 44 33.800781 C 44 32 42.800781 30.800781 40.601563 31 Z "/>
<path style=" fill:#4E342E;" d="M 42.699219 31.398438 C 42.601563 31.398438 42.5 31.300781 42.398438 31.300781 C 42.300781 31.300781 42.300781 31.199219 42.199219 31.199219 C 42 31.101563 41.800781 31.101563 41.601563 31.101563 C 41.398438 31.101563 41.199219 31.101563 41 31.101563 C 40.898438 31.101563 40.699219 31.101563 40.601563 31.101563 C 41.898438 31.5 42.5 32.5 42.300781 33.398438 C 42.5 34.398438 42.199219 35.601563 40.601563 36.601563 C 39.5 37.101563 37.800781 37.5 35.101563 37.5 C 31.800781 37.5 27.101563 36.5 25.101563 34.199219 C 24.5 33.5 24.101563 32.699219 24.101563 31.699219 C 24.101563 32.699219 23.699219 33.5 23.101563 34.199219 C 21.101563 36.5 16.398438 37.5 13.101563 37.5 C 10.398438 37.5 8.699219 37.101563 7.601563 36.601563 C 5.898438 35.601563 5.601563 34.398438 5.898438 33.398438 C 5.699219 32.5 6.300781 31.398438 7.601563 31.101563 C 7.5 31.101563 7.300781 31.101563 7.199219 31.101563 C 7 31.101563 6.800781 31.101563 6.601563 31.101563 C 6.398438 31.101563 6.199219 31.199219 6 31.199219 C 5.898438 31.199219 5.800781 31.300781 5.699219 31.300781 C 5.601563 31.300781 5.601563 31.398438 5.5 31.398438 C 4.5 31.800781 4 32.699219 4 33.800781 C 4 36.199219 5.5 39 13 39 C 16.101563 39 19.398438 38.398438 21.898438 37.101563 C 22.699219 36.699219 23.398438 36.101563 24 35.5 C 26.300781 38 30.898438 39 35 39 C 36.898438 39 38.398438 38.800781 39.5 38.5 C 42.800781 37.699219 43.800781 35.898438 43.898438 34.300781 C 43.898438 34.101563 43.898438 34 43.898438 33.800781 C 44 32.699219 43.5 31.800781 42.699219 31.398438 Z "/>
<path style=" fill:#0097A7;" d="M 45 11 C 44.800781 10.800781 42.199219 9 35 9 L 34 9 C 33.5 9 33 9 32.5 9.101563 C 29.199219 9.300781 27.398438 9.800781 25.601563 10.699219 C 25.5 10.699219 24.898438 11 24.101563 11 C 24.101563 11 24.101563 11 24 11 C 23.199219 11 22.601563 10.699219 22.5 10.699219 L 22.300781 10.601563 C 20.601563 9.800781 19.5 9.199219 15.398438 9 C 15.199219 9 15 9 14.800781 9 C 14.601563 9 14.300781 9 14.101563 9 L 13.101563 9 C 5.898438 9 3.300781 10.800781 3.101563 11 C 2.5 11 2.101563 11.398438 2.101563 12 L 2.101563 13 C 2.101563 13.601563 2.5 14 3.101563 14 C 3.101563 14 5.101563 14 5.101563 15 C 5.101563 15.101563 5.101563 15.101563 5.101563 15.199219 C 5.101563 15.5 5.101563 15.800781 5.101563 16 C 5.101563 20.398438 7.898438 23 12.699219 23 L 13.601563 23 C 18.601563 23 22.101563 20.101563 22.101563 16 C 22.101563 15.5 22.101563 15 22 14.5 L 22.5 14.300781 C 22.601563 14.300781 23.199219 14 24.101563 14 C 24.101563 14 24.199219 14 24.199219 14 C 25 14 25.699219 14.300781 25.699219 14.300781 L 26.199219 14.5 C 26.199219 15 26.101563 15.5 26.101563 16 C 26.101563 20.398438 28.898438 23 33.699219 23 L 34.601563 23 C 39.601563 23 43.101563 20.101563 43.101563 16 C 43.101563 15.699219 43.101563 15.398438 43.101563 15.199219 C 43.101563 15.199219 43.101563 15.101563 43.101563 15 C 43.101563 14 45.101563 14 45.101563 14 C 45.699219 14 46.101563 13.601563 46.101563 13 L 46.101563 12 C 46 11.398438 45.601563 11 45 11 Z M 26.5 12.5 Z M 21.5 12.5 Z M 13.5 21 L 12.601563 21 C 8 21 7 18.300781 7 16 C 7 13.199219 7 11 13 11 C 13.800781 11 14.5 11 15.101563 11 C 20 11.300781 20 13.398438 20 16 C 20 18.898438 17.300781 21 13.5 21 Z M 34.5 21 L 33.601563 21 C 29 21 28 18.300781 28 16 C 28 13.5 28 11.5 32.398438 11.101563 C 33.101563 11 34 11 35 11 C 41 11 41 13.199219 41 16 C 41 18.898438 38.300781 21 34.5 21 Z "/>
<path style="fill:none;stroke-width:2;stroke-linecap:round;stroke-linejoin:miter;stroke:#FFFFFF;stroke-opacity:1;stroke-miterlimit:4;" d="M 10 16 C 10 16 10 14 13 14 M 34 14 C 31 14 31 16 31 16 "/>
</g>
</svg>
