<?xml version="1.0" encoding="UTF-8"?>
<svg xmlns="http://www.w3.org/2000/svg" xmlns:xlink="http://www.w3.org/1999/xlink" viewBox="0 0 48 48" version="1.1">
<g id="surface1">
<path style=" fill:#424242;" d="M 24 4 C 18.484375 4 14 8.484375 14 14 L 14 18 L 18 18 L 18 14 C 18 10.691406 20.691406 8 24 8 C 27.308594 8 30 10.691406 30 14 L 30 18 L 34 18 L 34 14 C 34 8.484375 29.515625 4 24 4 "/>
<path style=" fill:#8BC34A;" d="M 37 44 L 11 44 C 8.789063 44 7 42.210938 7 40 L 7 22 C 7 19.789063 8.789063 18 11 18 L 37 18 C 39.210938 18 41 19.789063 41 22 L 41 40 C 41 42.210938 39.210938 44 37 44 "/>
<path style=" fill:#F1F8E9;" d="M 17 31 C 17 32.65625 15.65625 34 14 34 C 12.34375 34 11 32.65625 11 31 C 11 29.34375 12.34375 28 14 28 C 15.65625 28 17 29.34375 17 31 "/>
<path style=" fill:#F1F8E9;" d="M 37 31 C 37 32.65625 35.65625 34 34 34 C 32.34375 34 31 32.65625 31 31 C 31 29.34375 32.34375 28 34 28 C 35.65625 28 37 29.34375 37 31 "/>
<path style=" fill:#F1F8E9;" d="M 27 31 C 27 32.65625 25.65625 34 24 34 C 22.34375 34 21 32.65625 21 31 C 21 29.34375 22.34375 28 24 28 C 25.65625 28 27 29.34375 27 31 "/>
</g>
</svg>
