<?xml version="1.0" encoding="UTF-8"?>
<svg xmlns="http://www.w3.org/2000/svg" xmlns:xlink="http://www.w3.org/1999/xlink" viewBox="0 0 48 48" version="1.1">
<g id="surface1">
<path style=" fill:#4E342E;" d="M 22 27 C 22 27 11.699219 29.398438 9 33 C 6.300781 36.601563 6 44 6 44 L 42 44 C 42 34.199219 40.300781 33.199219 32 27 Z "/>
<path style=" fill:#FBC02D;" d="M 37.601563 11.5 C 38 10.800781 39.199219 10.800781 39.699219 11.800781 C 39.898438 12.101563 41 19.601563 41 21 C 41 22.398438 41.101563 23.601563 39.800781 26 C 38.5 28.398438 37 30.199219 37 32 C 37 33.800781 40 40 40 40 C 40 40 38.898438 41.800781 36 43 C 36 43 32.300781 32.5 33 29 C 33 29 33.300781 26.300781 35 23 C 36.699219 19.699219 37.601563 11.5 37.601563 11.5 Z "/>
<path style=" fill:#FBC02D;" d="M 15.199219 12.199219 C 15.398438 10.898438 13.300781 10.699219 12.699219 11.5 C 12.101563 12.300781 11.300781 13.5 11.199219 14.5 C 11.101563 15.5 10.800781 19.398438 11.898438 21.898438 C 13 24.398438 16 27.199219 16 29.800781 C 16 32.398438 14.199219 42 14.199219 42 C 15.601563 42 17.398438 42.101563 19 40.699219 C 19 38.898438 19.699219 33.601563 19.699219 32.800781 C 19.800781 30.898438 21.601563 29.699219 21.101563 27.199219 Z "/>
<path style=" fill:#FBC02D;" d="M 27 3 L 26 3 C 26 3 15 3.5 15 15 C 15 22.199219 19.101563 23.300781 21 27 C 22.898438 30.699219 21.898438 36 27 36 C 27.101563 36 27.5 36 27.601563 36 C 32.699219 36 32.101563 29.699219 34 26 C 35.898438 22.300781 38 22.199219 38 15 C 38 3.5 27 3 27 3 Z "/>
<path style=" fill:#F57F17;" d="M 32.398438 31 C 32.199219 32.199219 32 33 32 33 C 32 33 30.199219 42 27 42 C 25 42 22.699219 32.699219 22.699219 32.699219 C 23.300781 34.601563 24.300781 36 27 36 C 27.101563 36 27.5 36 27.601563 36 C 30.699219 36 31.699219 33.601563 32.398438 31 Z M 40 15 C 40 13.800781 39.898438 12.800781 39.699219 11.800781 C 39.199219 10.800781 38 10.800781 37.601563 11.5 C 37.898438 12.5 38 13.699219 38 15 C 38 22.199219 35.898438 22.300781 34 26 C 33.601563 26.699219 33.398438 27.5 33.101563 28.398438 C 33 28.800781 33 29 33 29 C 32.800781 30.101563 33 32 33.5 34 C 34.101563 32.800781 34.398438 31.5 34.699219 30.300781 C 35 29 35.300781 27.800781 35.800781 26.898438 C 36.300781 26 36.699219 25.398438 37.199219 24.699219 C 38.601563 22.699219 40 20.898438 40 15 Z M 15 15 C 15 14 15.101563 13.199219 15.199219 12.398438 L 15.101563 12.199219 C 15.199219 11.300781 14.199219 10.898438 13.398438 11.101563 C 13.101563 12.300781 12.898438 13.601563 12.898438 15.101563 C 12.898438 20.800781 15.199219 23.398438 17.101563 25.398438 C 17.898438 26.300781 18.601563 27.101563 19.101563 28 C 19.601563 28.898438 19.800781 30 20.101563 31.101563 C 20.601563 30 21.300781 28.898438 21 27.300781 C 21 27.199219 20.898438 27.101563 20.898438 27.101563 C 19.101563 23.300781 15 22.199219 15 15 Z "/>
<path style=" fill:#6D4C41;" d="M 27.601563 23.5 C 27.199219 22.898438 26.300781 22.800781 25.699219 23.199219 C 25.199219 23.5 25.101563 24.101563 25 24.699219 C 24.800781 26.699219 25.398438 28.800781 26.601563 30.5 C 26.699219 30.699219 26.898438 30.898438 27.101563 31 C 27.601563 31.199219 28.101563 30.699219 28.300781 30.300781 C 28.800781 29.398438 29 28.300781 28.898438 27.199219 C 28.601563 24.699219 27.601563 23.5 27.601563 23.5 Z "/>
<path style=" fill:#F57F17;" d="M 26 20 C 26 20.601563 25.601563 21 25 21 C 24.398438 21 24 20.601563 24 20 C 24 19.398438 24.398438 19 25 19 C 25.601563 19 26 19.398438 26 20 Z M 28 19 C 27.398438 19 27 19.398438 27 20 C 27 20.601563 27.398438 21 28 21 C 28.601563 21 29 20.601563 29 20 C 29 19.398438 28.601563 19 28 19 Z "/>
<path style=" fill:#4E342E;" d="M 22 16 C 22 16.601563 21.601563 17 21 17 C 20.398438 17 20 16.601563 20 16 C 20 15.398438 20.398438 15 21 15 C 21.601563 15 22 15.398438 22 16 Z M 30 14 C 29.398438 14 29 14.398438 29 15 C 29 15.601563 29.398438 16 30 16 C 30.601563 16 31 15.601563 31 15 C 31 14.398438 30.601563 14 30 14 Z "/>
</g>
</svg>
