<?xml version="1.0" encoding="UTF-8" standalone="no"?>
<!DOCTYPE svg PUBLIC "-//W3C//DTD SVG 1.1//EN" "http://www.w3.org/Graphics/SVG/1.1/DTD/svg11.dtd">
<svg width="100%" height="100%" viewBox="0 0 48 48" version="1.1" xmlns="http://www.w3.org/2000/svg" xmlns:xlink="http://www.w3.org/1999/xlink" xml:space="preserve" xmlns:serif="http://www.serif.com/" style="fill-rule:evenodd;clip-rule:evenodd;">
    <g id="surface1" transform="matrix(1.05848,0,0,1.04547,-2.4052,-2.09095)">
        <g transform="matrix(1.04392,0,0,1.04392,-0.307279,-0.087843)">
            <path d="M32.656,11.711C26.867,7.77 21.875,8.004 21.875,8.004L6.996,30.813C6.996,30.813 8.613,35.539 14.402,39.48C20.191,43.418 25.184,43.188 25.184,43.188L40.063,20.379C40.063,20.379 38.445,15.645 32.656,11.711ZM29,20C27.344,20 26,18.656 26,17C26,15.344 27.344,14 29,14C30.656,14 32,15.344 32,17C32,18.656 30.656,20 29,20Z" style="fill:rgb(197,202,233);fill-rule:nonzero;"/>
        </g>
        <g transform="matrix(1.04392,0,0,1.04392,-0.307279,-0.087843)">
            <path d="M22,21L14,33" style="fill:none;stroke:rgb(159,168,218);stroke-width:2px;"/>
        </g>
        <g transform="matrix(1.04392,0,0,1.04392,-0.307279,-0.087843)">
            <path d="M25,23L17,35" style="fill:none;stroke:rgb(159,168,218);stroke-width:2px;"/>
        </g>
        <g transform="matrix(1.04392,0,0,1.04392,-0.307279,-0.087843)">
            <path d="M24,31L20,37" style="fill:none;stroke:rgb(159,168,218);stroke-width:2px;"/>
        </g>
        <g transform="matrix(1.04392,0,0,1.04392,-0.307279,-0.087843)">
            <path d="M25.188,43.188C25.188,43.188 21.078,43.363 16,40.469L16,43C16,43 19,45.98 27,45.98C35,45.98 38,43 38,43L38,23.543L25.188,43.188Z" style="fill:rgb(121,134,203);fill-rule:nonzero;"/>
        </g>
        <g transform="matrix(1.04392,0,0,1.04392,-0.307279,-0.087843)">
            <path d="M32,3.5C32,4.328 31.328,5 30.5,5C29.672,5 29,4.328 29,3.5C29,2.672 29.672,2 30.5,2C31.328,2 32,2.672 32,3.5Z" style="fill:rgb(121,134,203);fill-rule:nonzero;"/>
        </g>
        <g transform="matrix(1.04392,0,0,1.04392,-0.307279,-0.087843)">
            <path d="M32,7.5C32,8.328 31.328,9 30.5,9C29.672,9 29,8.328 29,7.5C29,6.672 29.672,6 30.5,6C31.328,6 32,6.672 32,7.5Z" style="fill:rgb(121,134,203);fill-rule:nonzero;"/>
        </g>
        <g transform="matrix(1.04392,0,0,1.04392,-0.307279,-0.087843)">
            <path d="M32,11.5C32,12.328 31.328,13 30.5,13C29.672,13 29,12.328 29,11.5C29,10.672 29.672,10 30.5,10C31.328,10 32,10.672 32,11.5Z" style="fill:rgb(121,134,203);fill-rule:nonzero;"/>
        </g>
        <g transform="matrix(1.04392,0,0,1.04392,-0.307279,-0.087843)">
            <path d="M32,15.5C32,16.328 31.328,17 30.5,17C29.672,17 29,16.328 29,15.5C29,14.672 29.672,14 30.5,14C31.328,14 32,14.672 32,15.5Z" style="fill:rgb(121,134,203);fill-rule:nonzero;"/>
        </g>
        <g transform="matrix(1.04392,0,0,1.04392,-0.307279,-0.087843)">
            <path d="M27.699,44.824L38,24L38,23.539L25.188,43.188C25.188,43.188 25.133,43.188 25.027,43.188C24.223,43.188 20.492,43.031 16,40.469L16,43C16,43 18.984,45.957 26.922,45.977L27.699,44.824Z" style="fill:rgb(92,107,192);fill-rule:nonzero;"/>
        </g>
    </g>
</svg>
