<?xml version="1.0" encoding="UTF-8" standalone="no"?>
<!DOCTYPE svg PUBLIC "-//W3C//DTD SVG 1.1//EN" "http://www.w3.org/Graphics/SVG/1.1/DTD/svg11.dtd">
<svg width="100%" height="100%" viewBox="0 0 16 16" version="1.1" xmlns="http://www.w3.org/2000/svg" xmlns:xlink="http://www.w3.org/1999/xlink" xml:space="preserve" xmlns:serif="http://www.serif.com/" style="fill-rule:evenodd;clip-rule:evenodd;stroke-linejoin:round;stroke-miterlimit:1.41421;">
    <g id="surface1" transform="matrix(0.362823,0,0,0.362823,-0.726001,-0.689506)">
        <path d="M21.199,44.801L3.199,26.801C1.602,25.199 1.602,22.699 3.199,21.102L21.199,3.102C22.801,1.5 25.301,1.5 26.898,3.102L44.898,21.102C46.5,22.699 46.5,25.199 44.898,26.801L26.898,44.801C25.301,46.398 22.699,46.398 21.199,44.801Z" style="fill:rgb(244,67,54);fill-rule:nonzero;"/>
        <path d="M21.602,32.699C21.602,32.398 21.699,32.102 21.801,31.801C21.898,31.5 22.102,31.301 22.301,31.102C22.5,30.898 22.801,30.699 23.102,30.602C23.398,30.5 23.699,30.398 24.102,30.398C24.5,30.398 24.801,30.5 25.102,30.602C25.398,30.699 25.699,30.898 25.898,31.102C26.102,31.301 26.301,31.5 26.398,31.801C26.5,32.102 26.602,32.398 26.602,32.699C26.602,33 26.5,33.301 26.398,33.602C26.301,33.898 26.102,34.102 25.898,34.301C25.699,34.5 25.398,34.699 25.102,34.801C24.801,34.898 24.5,35 24.102,35C23.699,35 23.398,34.898 23.102,34.801C22.801,34.699 22.602,34.5 22.301,34.301C22.102,34.102 21.898,33.898 21.801,33.602C21.699,33.301 21.602,33.102 21.602,32.699ZM25.801,28.102L22.199,28.102L21.699,13L26.301,13L25.801,28.102Z" style="fill:white;fill-rule:nonzero;"/>
    </g>
</svg>
